<svg xmlns="http://www.w3.org/2000/svg" xmlns:xlink="http://www.w3.org/1999/xlink" width="217.053" height="142.318" viewBox="0 0 217.053 142.318"><defs><style>.a{fill:url(#a);}.b{fill:url(#b);}.c{fill:#571353;}.d{fill:#ae63a0;mix-blend-mode:multiply;isolation:isolate;}.e{fill:#ba21b3;}</style><linearGradient id="a" x1="0.5" y1="1" x2="0.5" gradientUnits="objectBoundingBox"><stop offset="0" stop-color="#8e378a"/><stop offset="1" stop-color="#7b1f76"/></linearGradient><linearGradient id="b" y1="0.5" x2="1" y2="0.5" gradientUnits="objectBoundingBox"><stop offset="0" stop-color="#7b1f76"/><stop offset="1" stop-color="#8e378a"/></linearGradient></defs><g transform="translate(0 0)"><path class="a" d="M204.883,272.349l-11.6,117.175H326.438L304.273,272.349Z" transform="translate(-143.666 -270.807)"/><path class="b" d="M184.151,348.873v-23.6l188.622-4.257v27.858Z" transform="translate(-155.721 -206.555)"/><path class="c" d="M193.12,271.684,186.145,390.29l16.56.111,11.6-117.175Z" transform="translate(-153.089 -271.684)"/><rect class="c" width="28.43" height="23.601" transform="translate(0 118.717)"/><path class="d" d="M315.834,295.276l-107.452,11.45-20.413,9.6,2.241-43.135s27.221,6.836,65.342,6.016,56.2-5.538,56.2-5.538Z" transform="translate(-150.681 -269.691)"/><path class="e" d="M185.085,346.451l-1.642-23.6H187Z" transform="translate(-156.655 -204.133)"/><path class="e" d="M388.951,321.016S226.734,331.807,171.9,325.271Z" transform="translate(-171.898 -206.555)"/></g></svg>