<svg xmlns="http://www.w3.org/2000/svg" xmlns:xlink="http://www.w3.org/1999/xlink" width="329.19" height="215.845" viewBox="0 0 329.19 215.845"><defs><style>.a{fill:url(#a);}.b{fill:url(#b);}.c{fill:#7a0b43;}.d{fill:#ae63a0;mix-blend-mode:multiply;isolation:isolate;}.e{fill:#c03e90;}.f{fill:#fa3e90;}</style><linearGradient id="a" x1="0.5" y1="1" x2="0.5" gradientUnits="objectBoundingBox"><stop offset="0" stop-color="#cc1a6d"/><stop offset="1" stop-color="#9a0065"/></linearGradient><linearGradient id="b" y1="0.5" x2="1" y2="0.5" gradientUnits="objectBoundingBox"><stop offset="0" stop-color="#a92063"/><stop offset="1" stop-color="#d31a6b"/></linearGradient></defs><path class="a" d="M210.877,272.349,193.282,450.061h201.95L361.615,272.349Z" transform="translate(-118.033 -270.01)"/><path class="b" d="M184.151,363.266V327.472l286.072-6.457v42.25Z" transform="translate(-141.033 -147.421)"/><path class="c" d="M196.724,271.684,186.145,451.567l25.115.169,17.595-177.713Z" transform="translate(-136.011 -271.684)"/><rect class="c" width="43.117" height="35.794" transform="translate(0.001 180.051)"/><path class="d" d="M381.895,306.684,218.929,324.05l-30.96,14.565,3.4-65.421s41.284,10.367,99.1,9.125,85.229-8.4,85.229-8.4Z" transform="translate(-131.416 -267.881)"/><path class="e" d="M185.933,358.644l-2.49-35.794h5.39Z" transform="translate(-142.815 -142.799)"/><path class="f" d="M501.088,321.016S255.065,337.383,171.9,327.47Z" transform="translate(-171.898 -147.42)"/></svg>