<svg xmlns="http://www.w3.org/2000/svg" width="757.026" height="46.872" viewBox="0 0 757.026 46.872"><defs><style>.a{fill:#fff;}</style></defs><path class="a" d="M22.734.648a25.146,25.146,0,0,0,13.23-3.78A5.619,5.619,0,0,0,38.88-8.424V-17.6a4.126,4.126,0,0,0-4.158-4.158h-9.5A3.618,3.618,0,0,0,21.6-18.144a3.573,3.573,0,0,0,3.618,3.564h5.616v5.4A13.269,13.269,0,0,1,23-6.912c-6.7,0-11.448-5.076-11.448-11.988v-.108c0-6.426,4.806-11.772,10.854-11.772a13.236,13.236,0,0,1,8.262,2.592,4.051,4.051,0,0,0,2.538.864,4.1,4.1,0,0,0,4.1-4.1,4.157,4.157,0,0,0-1.728-3.348c-3.4-2.376-7.182-3.672-12.906-3.672A19.4,19.4,0,0,0,2.862-18.9v.108C2.862-7.614,10.962.648,22.734.648ZM54.756.54A11.129,11.129,0,0,0,63.5-3.132v.054a3.675,3.675,0,0,0,3.942,3.4,3.941,3.941,0,0,0,4-3.942V-16.794c0-3.888-.972-7.074-3.132-9.234-2.052-2.052-5.292-3.24-9.774-3.24A25.2,25.2,0,0,0,49.3-27.756a3.4,3.4,0,0,0-2.214,3.186,3.342,3.342,0,0,0,3.4,3.348,3.472,3.472,0,0,0,1.188-.216,18.824,18.824,0,0,1,5.67-.81c4.1,0,6.21,1.89,6.21,5.292v.486a20.567,20.567,0,0,0-7.074-1.188c-6.858,0-11.664,2.916-11.664,9.234v.108C44.82-2.592,49.3.54,54.756.54ZM57.24-5.13c-2.646,0-4.482-1.3-4.482-3.51v-.108c0-2.592,2.16-4,5.67-4a12.727,12.727,0,0,1,5.238,1.08v1.458C63.666-7.236,61.074-5.13,57.24-5.13ZM78.516-3.78a4.1,4.1,0,0,0,4.1,4.1,4.1,4.1,0,0,0,4.1-4.1V-16.146c0-3.888,2-5.886,5.13-5.886s4.968,2,4.968,5.886V-3.78a4.1,4.1,0,0,0,4.1,4.1,4.1,4.1,0,0,0,4.1-4.1V-18.738c0-6.642-3.618-10.746-9.828-10.746-4.158,0-6.588,2.214-8.478,4.644v-.324a4.1,4.1,0,0,0-4.1-4.1,4.1,4.1,0,0,0-4.1,4.1ZM120.366.54a11.129,11.129,0,0,0,8.748-3.672v.054a3.675,3.675,0,0,0,3.942,3.4,3.941,3.941,0,0,0,4-3.942V-16.794c0-3.888-.972-7.074-3.132-9.234-2.052-2.052-5.292-3.24-9.774-3.24a25.2,25.2,0,0,0-9.234,1.512A3.4,3.4,0,0,0,112.7-24.57a3.342,3.342,0,0,0,3.4,3.348,3.472,3.472,0,0,0,1.188-.216,18.824,18.824,0,0,1,5.67-.81c4.1,0,6.21,1.89,6.21,5.292v.486a20.567,20.567,0,0,0-7.074-1.188c-6.858,0-11.664,2.916-11.664,9.234v.108C110.43-2.592,114.912.54,120.366.54Zm2.484-5.67c-2.646,0-4.482-1.3-4.482-3.51v-.108c0-2.592,2.16-4,5.67-4a12.727,12.727,0,0,1,5.238,1.08v1.458C129.276-7.236,126.684-5.13,122.85-5.13Zm63.774-20.034a4.1,4.1,0,0,0-4.1-4.1,4.1,4.1,0,0,0-4.1,4.1V-12.8c0,3.888-2,5.886-5.13,5.886s-4.968-2-4.968-5.886V-25.164a4.1,4.1,0,0,0-4.1-4.1,4.1,4.1,0,0,0-4.1,4.1v14.958c0,6.642,3.618,10.746,9.828,10.746,4.158,0,6.588-2.214,8.478-4.644v.324a4.1,4.1,0,0,0,4.1,4.1,4.1,4.1,0,0,0,4.1-4.1ZM193.968-3.78a4.1,4.1,0,0,0,4.1,4.1,4.1,4.1,0,0,0,4.1-4.1V-16.146c0-3.888,2-5.886,5.13-5.886s4.968,2,4.968,5.886V-3.78a4.1,4.1,0,0,0,4.1,4.1,4.1,4.1,0,0,0,4.1-4.1V-18.738c0-6.642-3.618-10.746-9.828-10.746-4.158,0-6.588,2.214-8.478,4.644v-.324a4.1,4.1,0,0,0-4.1-4.1,4.1,4.1,0,0,0-4.1,4.1Zm49.842,0a4.1,4.1,0,0,0,4.1,4.1,4.091,4.091,0,0,0,4.1-4.05V-3.78A11.115,11.115,0,0,0,261.036.54c6.858,0,13.176-5.292,13.176-14.958v-.108c0-9.666-6.426-14.958-13.176-14.958a10.629,10.629,0,0,0-9.018,4.7V-35.64a4.1,4.1,0,0,0-4.1-4.1,4.1,4.1,0,0,0-4.1,4.1Zm15.12-2.646c-3.834,0-7.02-3.186-7.02-7.992v-.108c0-4.806,3.186-7.992,7.02-7.992S266-19.332,266-14.526v.108C266-9.558,262.764-6.426,258.93-6.426ZM294.462.648c9.018,0,15.714-6.75,15.714-15.066v-.108c0-8.316-6.642-14.958-15.606-14.958-9.018,0-15.714,6.75-15.714,15.066v.108C278.856-5.994,285.5.648,294.462.648Zm.108-7.074a7.69,7.69,0,0,1-7.614-7.992v-.108c0-4.266,2.808-7.884,7.506-7.884a7.69,7.69,0,0,1,7.614,7.992v.108C302.076-10.044,299.268-6.426,294.57-6.426ZM316.116-3.78a4.1,4.1,0,0,0,4.1,4.1,4.1,4.1,0,0,0,4.1-4.1V-16.146c0-3.888,2-5.886,5.13-5.886s4.968,2,4.968,5.886V-3.78a4.1,4.1,0,0,0,4.1,4.1,4.1,4.1,0,0,0,4.1-4.1V-18.738c0-6.642-3.618-10.746-9.828-10.746-4.158,0-6.588,2.214-8.478,4.644v-.324a4.1,4.1,0,0,0-4.1-4.1,4.1,4.1,0,0,0-4.1,4.1ZM363.96.648c9.018,0,15.714-6.75,15.714-15.066v-.108c0-8.316-6.642-14.958-15.606-14.958-9.018,0-15.714,6.75-15.714,15.066v.108C348.354-5.994,355,.648,363.96.648Zm.108-7.074a7.69,7.69,0,0,1-7.614-7.992v-.108c0-4.266,2.808-7.884,7.506-7.884a7.69,7.69,0,0,1,7.614,7.992v.108C371.574-10.044,368.766-6.426,364.068-6.426ZM430.92-35.64a4.1,4.1,0,0,0-4.1-4.1,4.1,4.1,0,0,0-4.1,4.1v10.476a11.115,11.115,0,0,0-9.018-4.32c-6.858,0-13.176,5.292-13.176,14.958v.108c0,9.666,6.426,14.958,13.176,14.958a10.629,10.629,0,0,0,9.018-4.7v.378a4.1,4.1,0,0,0,4.1,4.1,4.1,4.1,0,0,0,4.1-4.1ZM415.8-22.518c3.834,0,7.02,3.186,7.02,7.992v.108c0,4.806-3.186,7.992-7.02,7.992s-7.074-3.186-7.074-7.992v-.108C408.726-19.386,411.966-22.518,415.8-22.518Zm29.106,5.778c.648-3.726,2.862-6.156,6.264-6.156,3.456,0,5.616,2.484,6.1,6.156ZM462.024-2.862a3.221,3.221,0,0,0,1.08-2.43,3.138,3.138,0,0,0-3.186-3.24,3.063,3.063,0,0,0-2,.648,9.474,9.474,0,0,1-5.832,1.944,6.713,6.713,0,0,1-7.074-5.67h16.254a3.744,3.744,0,0,0,3.834-3.942c0-5.994-4.266-13.932-13.932-13.932-8.424,0-14.31,6.8-14.31,15.066v.108c0,8.856,6.426,14.958,15.12,14.958A15,15,0,0,0,462.024-2.862Zm36.99-35.586v.648c-6.8.7-11.34,4.7-11.34,10.638,0,6.426,3.834,9.4,11.61,11.5v8.586a20.622,20.622,0,0,1-6.912-3.024,3.925,3.925,0,0,0-2.106-.7,3.621,3.621,0,0,0-3.726,3.672,3.655,3.655,0,0,0,1.836,3.24,27,27,0,0,0,10.638,3.78V2.808a2.808,2.808,0,1,0,5.616,0V-.054c6.8-.756,11.448-4.644,11.448-10.692s-3.51-9.4-11.718-11.61v-8.208a20.665,20.665,0,0,1,4.482,1.836,3.94,3.94,0,0,0,1.89.486A3.6,3.6,0,0,0,514.4-31.86a3.631,3.631,0,0,0-1.944-3.24,22.694,22.694,0,0,0-7.83-2.592v-.756a2.789,2.789,0,0,0-2.808-2.808A2.789,2.789,0,0,0,499.014-38.448Zm9.18,28.134c0,1.944-1.3,3.132-3.834,3.51V-14.31C507.276-13.284,508.194-12.1,508.194-10.314ZM495.558-27.648c0-1.728,1.134-3.024,3.726-3.4v7.29C496.314-24.84,495.558-25.974,495.558-27.648ZM521.1-3.942C521.1-1.458,522.99,0,525.582,0H546.1a3.573,3.573,0,0,0,3.618-3.564A3.618,3.618,0,0,0,546.1-7.182H532.926l6.156-4.752c6.7-5.184,9.936-8.316,9.936-14.634v-.108c0-7.074-5.184-11.664-13.014-11.664a14.883,14.883,0,0,0-12.312,5.562,4.16,4.16,0,0,0-.972,2.592,3.757,3.757,0,0,0,3.78,3.78,3.8,3.8,0,0,0,2.808-1.188c2.106-2.268,3.78-3.294,6.156-3.294,2.97,0,5.076,1.728,5.076,4.914,0,3.132-1.836,5.238-6.534,9.072L523.26-8.1A5.249,5.249,0,0,0,521.1-3.942ZM572.076.648c10.1,0,16.848-8.586,16.848-19.548v-.108c0-10.962-6.75-19.44-16.74-19.44-10.044,0-16.848,8.586-16.848,19.548v.108C555.336-7.83,561.978.648,572.076.648Zm.108-7.506c-5.022,0-8.316-5.13-8.316-12.042v-.108c0-6.912,3.24-11.934,8.208-11.934s8.316,5.184,8.316,12.042v.108C580.392-11.934,577.206-6.858,572.184-6.858ZM611.5.648c10.1,0,16.848-8.586,16.848-19.548v-.108c0-10.962-6.75-19.44-16.74-19.44-10.044,0-16.848,8.586-16.848,19.548v.108C594.756-7.83,601.4.648,611.5.648Zm.108-7.506c-5.022,0-8.316-5.13-8.316-12.042v-.108c0-6.912,3.24-11.934,8.208-11.934s8.316,5.184,8.316,12.042v.108C619.812-11.934,616.626-6.858,611.6-6.858Zm21.6,2.484v.108a4.545,4.545,0,0,0,4.7,4.59,4.545,4.545,0,0,0,4.7-4.59v-.108a4.545,4.545,0,0,0-4.7-4.59A4.545,4.545,0,0,0,633.2-4.374Zm31,5.022c10.1,0,16.848-8.586,16.848-19.548v-.108c0-10.962-6.75-19.44-16.74-19.44-10.044,0-16.848,8.586-16.848,19.548v.108C647.46-7.83,654.1.648,664.2.648Zm.108-7.506c-5.022,0-8.316-5.13-8.316-12.042v-.108c0-6.912,3.24-11.934,8.208-11.934s8.316,5.184,8.316,12.042v.108C672.516-11.934,669.33-6.858,664.308-6.858ZM703.62.648c10.1,0,16.848-8.586,16.848-19.548v-.108c0-10.962-6.75-19.44-16.74-19.44-10.044,0-16.848,8.586-16.848,19.548v.108C686.88-7.83,693.522.648,703.62.648Zm.108-7.506c-5.022,0-8.316-5.13-8.316-12.042v-.108c0-6.912,3.24-11.934,8.208-11.934s8.316,5.184,8.316,12.042v.108C711.936-11.934,708.75-6.858,703.728-6.858ZM743.04.648c10.1,0,16.848-8.586,16.848-19.548v-.108c0-10.962-6.75-19.44-16.74-19.44C733.1-38.448,726.3-29.862,726.3-18.9v.108C726.3-7.83,732.942.648,743.04.648Zm.108-7.506c-5.022,0-8.316-5.13-8.316-12.042v-.108c0-6.912,3.24-11.934,8.208-11.934s8.316,5.184,8.316,12.042v.108C751.356-11.934,748.17-6.858,743.148-6.858Z" transform="translate(-2.862 41.256)"/></svg>