<svg xmlns="http://www.w3.org/2000/svg" width="606.372" height="35.1" viewBox="0 0 606.372 35.1"><defs><style>.a{fill:#fff;}</style></defs><path class="a" d="M16.536.468a16.641,16.641,0,0,0,9.906-3.315,2.2,2.2,0,0,0,1.053-1.872v-8.307a1.557,1.557,0,0,0-1.521-1.56H17.2a1.39,1.39,0,0,0-1.365,1.4A1.382,1.382,0,0,0,17.2-11.817h7.332v6.786A12.855,12.855,0,0,1,16.653-2.3c-6.63,0-10.8-4.836-10.8-11.349v-.078c0-6.084,4.329-11.193,10.374-11.193a11.572,11.572,0,0,1,7.566,2.5,1.628,1.628,0,0,0,.975.39,1.557,1.557,0,0,0,1.521-1.56,1.567,1.567,0,0,0-.624-1.248,14.545,14.545,0,0,0-9.321-2.925c-8.19,0-13.689,6.63-13.689,14.118v.078C2.652-5.772,7.956.468,16.536.468ZM33.93-1.326A1.5,1.5,0,0,0,35.451.195a1.49,1.49,0,0,0,1.482-1.521V-8.19c0-5.811,3.2-8.736,7.1-9.2a1.49,1.49,0,0,0,1.326-1.521,1.444,1.444,0,0,0-1.482-1.521c-2.535,0-5.46,2.028-6.942,5.382v-3.783a1.5,1.5,0,0,0-1.521-1.521,1.515,1.515,0,0,0-1.482,1.521ZM54.756.429a8.836,8.836,0,0,0,7.293-3.471v1.833a1.384,1.384,0,0,0,1.443,1.4,1.425,1.425,0,0,0,1.443-1.482V-12.324a7.959,7.959,0,0,0-2.067-5.889c-1.482-1.482-3.666-2.223-6.513-2.223a15.9,15.9,0,0,0-6.591,1.365,1.375,1.375,0,0,0-.819,1.248,1.333,1.333,0,0,0,1.326,1.287,1.531,1.531,0,0,0,.546-.117,12.588,12.588,0,0,1,5.226-1.131c3.783,0,6.006,1.872,6.006,5.5v.7a21.409,21.409,0,0,0-6.2-.858c-5.109,0-8.619,2.262-8.619,6.513v.078C47.229-1.716,51.012.429,54.756.429Zm.585-2.379c-2.73,0-5.07-1.482-5.07-4.017v-.078c0-2.535,2.106-4.173,5.889-4.173a21.032,21.032,0,0,1,5.928.858v1.95C62.088-4.212,59.046-1.95,55.341-1.95ZM80.418.468a10.147,10.147,0,0,0,7.6-3.237,1.362,1.362,0,0,0,.39-.936A1.409,1.409,0,0,0,87.048-5.07a1.189,1.189,0,0,0-.858.39,8.057,8.057,0,0,1-5.616,2.457,7.534,7.534,0,0,1-7.41-7.839v-.078c0-4.329,3.12-7.8,7.215-7.8a7.776,7.776,0,0,1,5.5,2.418,1.554,1.554,0,0,0,.975.351A1.44,1.44,0,0,0,88.3-16.614a1.411,1.411,0,0,0-.468-1.053,10.424,10.424,0,0,0-7.41-2.925,10.394,10.394,0,0,0-10.335,10.53v.078A10.352,10.352,0,0,0,80.418.468ZM93.6-25.974a1.645,1.645,0,0,0,1.755,1.6,1.657,1.657,0,0,0,1.794-1.6v-.507a1.634,1.634,0,0,0-1.794-1.6,1.622,1.622,0,0,0-1.755,1.6Zm.273,24.648A1.5,1.5,0,0,0,95.394.195a1.466,1.466,0,0,0,1.482-1.521V-18.837a1.5,1.5,0,0,0-1.521-1.521,1.515,1.515,0,0,0-1.482,1.521ZM109.863.429a8.836,8.836,0,0,0,7.293-3.471v1.833A1.384,1.384,0,0,0,118.6.195a1.425,1.425,0,0,0,1.443-1.482V-12.324a7.959,7.959,0,0,0-2.067-5.889c-1.482-1.482-3.666-2.223-6.513-2.223a15.9,15.9,0,0,0-6.591,1.365,1.375,1.375,0,0,0-.819,1.248,1.333,1.333,0,0,0,1.326,1.287,1.531,1.531,0,0,0,.546-.117,12.588,12.588,0,0,1,5.226-1.131c3.783,0,6.006,1.872,6.006,5.5v.7a21.409,21.409,0,0,0-6.2-.858c-5.109,0-8.619,2.262-8.619,6.513v.078C102.336-1.716,106.119.429,109.863.429Zm.585-2.379c-2.73,0-5.07-1.482-5.07-4.017v-.078c0-2.535,2.106-4.173,5.889-4.173a21.032,21.032,0,0,1,5.928.858v1.95C117.195-4.212,114.153-1.95,110.448-1.95ZM133.107.39c4.017,0,7.176-2.223,7.176-6.045v-.078c0-3.627-3.354-4.836-6.474-5.772-2.691-.819-5.187-1.56-5.187-3.471v-.078c0-1.677,1.521-2.925,3.9-2.925a10.912,10.912,0,0,1,5.265,1.56,1.508,1.508,0,0,0,.663.156,1.307,1.307,0,0,0,1.326-1.287,1.458,1.458,0,0,0-.741-1.248,14.046,14.046,0,0,0-6.435-1.716c-3.978,0-6.864,2.3-6.864,5.772v.078c0,3.7,3.51,4.8,6.669,5.694,2.652.741,5.031,1.521,5.031,3.549v.078c0,1.95-1.755,3.2-4.173,3.2a11.328,11.328,0,0,1-6.4-2.145,1.2,1.2,0,0,0-.741-.234A1.307,1.307,0,0,0,124.8-3.237a1.356,1.356,0,0,0,.546,1.092A13.952,13.952,0,0,0,133.107.39ZM157.56,4.914a1.5,1.5,0,0,0,1.521,1.521,1.466,1.466,0,0,0,1.482-1.521V-3.861a9.1,9.1,0,0,0,7.722,4.29c4.875,0,9.633-3.9,9.633-10.491v-.078c0-6.63-4.8-10.452-9.633-10.452-3.705,0-6.084,2.067-7.722,4.485v-2.73a1.5,1.5,0,0,0-1.521-1.521,1.49,1.49,0,0,0-1.482,1.521Zm10.179-7.176a7.5,7.5,0,0,1-7.293-7.8v-.078a7.518,7.518,0,0,1,7.293-7.761c3.822,0,7.1,3.042,7.1,7.8v.078C174.837-5.148,171.639-2.262,167.739-2.262ZM192.66.468a10.469,10.469,0,0,0,10.569-10.53v-.078a10.362,10.362,0,0,0-10.491-10.452,10.436,10.436,0,0,0-10.53,10.53v.078A10.329,10.329,0,0,0,192.66.468Zm.078-2.691a7.564,7.564,0,0,1-7.449-7.839v-.078c0-4.251,3-7.8,7.371-7.8a7.63,7.63,0,0,1,7.488,7.878v.078A7.44,7.44,0,0,1,192.738-2.223Zm15.912.9A1.5,1.5,0,0,0,210.171.195a1.49,1.49,0,0,0,1.482-1.521V-8.19c0-5.811,3.2-8.736,7.1-9.2a1.49,1.49,0,0,0,1.326-1.521,1.444,1.444,0,0,0-1.482-1.521c-2.535,0-5.46,2.028-6.942,5.382v-3.783a1.5,1.5,0,0,0-1.521-1.521,1.515,1.515,0,0,0-1.482,1.521Zm33.5,1.755a8.836,8.836,0,0,0,7.293-3.471v1.833a1.384,1.384,0,0,0,1.443,1.4,1.425,1.425,0,0,0,1.443-1.482V-12.324a7.958,7.958,0,0,0-2.067-5.889c-1.482-1.482-3.666-2.223-6.513-2.223a15.9,15.9,0,0,0-6.591,1.365,1.375,1.375,0,0,0-.819,1.248,1.333,1.333,0,0,0,1.326,1.287,1.531,1.531,0,0,0,.546-.117,12.588,12.588,0,0,1,5.226-1.131c3.783,0,6.006,1.872,6.006,5.5v.7a21.409,21.409,0,0,0-6.2-.858c-5.109,0-8.619,2.262-8.619,6.513v.078C234.624-1.716,238.407.429,242.151.429Zm.585-2.379c-2.73,0-5.07-1.482-5.07-4.017v-.078c0-2.535,2.106-4.173,5.889-4.173a21.032,21.032,0,0,1,5.928.858v1.95C249.483-4.212,246.441-1.95,242.736-1.95ZM267.813.468a10.147,10.147,0,0,0,7.605-3.237,1.362,1.362,0,0,0,.39-.936,1.409,1.409,0,0,0-1.365-1.365,1.189,1.189,0,0,0-.858.39,8.057,8.057,0,0,1-5.616,2.457,7.534,7.534,0,0,1-7.41-7.839v-.078c0-4.329,3.12-7.8,7.215-7.8a7.776,7.776,0,0,1,5.5,2.418,1.554,1.554,0,0,0,.975.351,1.44,1.44,0,0,0,1.443-1.443,1.411,1.411,0,0,0-.468-1.053,10.424,10.424,0,0,0-7.41-2.925,10.394,10.394,0,0,0-10.335,10.53v.078A10.352,10.352,0,0,0,267.813.468ZM287.742.351a7.585,7.585,0,0,0,2.964-.546,1.254,1.254,0,0,0,.858-1.17,1.3,1.3,0,0,0-1.287-1.287,8.5,8.5,0,0,1-1.833.273c-2.028,0-3.393-.9-3.393-3.354V-17.511h5.226a1.349,1.349,0,0,0,1.365-1.326,1.375,1.375,0,0,0-1.365-1.326h-5.226v-4.758a1.549,1.549,0,0,0-1.521-1.521,1.49,1.49,0,0,0-1.482,1.521v4.758H280.41a1.34,1.34,0,0,0-1.326,1.326,1.367,1.367,0,0,0,1.326,1.326h1.638V-5.343C282.048-1.248,284.505.351,287.742.351Zm26.286-19.188a1.49,1.49,0,0,0-1.482-1.521,1.466,1.466,0,0,0-1.482,1.521V-8.619A5.954,5.954,0,0,1,305.019-2.3c-3.549,0-5.577-2.34-5.577-6.084V-18.837a1.523,1.523,0,0,0-1.521-1.521,1.466,1.466,0,0,0-1.482,1.521V-7.644c0,4.8,2.847,8.073,7.722,8.073a7.681,7.681,0,0,0,6.9-3.939v2.184A1.49,1.49,0,0,0,312.546.195a1.49,1.49,0,0,0,1.482-1.521ZM326.781.429a8.836,8.836,0,0,0,7.293-3.471v1.833a1.384,1.384,0,0,0,1.443,1.4,1.425,1.425,0,0,0,1.443-1.482V-12.324a7.959,7.959,0,0,0-2.067-5.889c-1.482-1.482-3.666-2.223-6.513-2.223a15.9,15.9,0,0,0-6.591,1.365,1.375,1.375,0,0,0-.819,1.248,1.333,1.333,0,0,0,1.326,1.287,1.531,1.531,0,0,0,.546-.117,12.588,12.588,0,0,1,5.226-1.131c3.783,0,6.006,1.872,6.006,5.5v.7a21.409,21.409,0,0,0-6.2-.858c-5.109,0-8.619,2.262-8.619,6.513v.078C319.254-1.716,323.037.429,326.781.429Zm.585-2.379c-2.73,0-5.07-1.482-5.07-4.017v-.078c0-2.535,2.106-4.173,5.889-4.173a21.032,21.032,0,0,1,5.928.858v1.95C334.113-4.212,331.071-1.95,327.366-1.95Zm16.263.624A1.5,1.5,0,0,0,345.15.195a1.466,1.466,0,0,0,1.482-1.521V-27.144a1.523,1.523,0,0,0-1.521-1.521,1.515,1.515,0,0,0-1.482,1.521Zm9.984-24.648a1.645,1.645,0,0,0,1.755,1.6,1.657,1.657,0,0,0,1.794-1.6v-.507a1.634,1.634,0,0,0-1.794-1.6,1.622,1.622,0,0,0-1.755,1.6Zm.273,24.648A1.5,1.5,0,0,0,355.407.195a1.466,1.466,0,0,0,1.482-1.521V-18.837a1.5,1.5,0,0,0-1.521-1.521,1.515,1.515,0,0,0-1.482,1.521ZM364.143,0h14.9a1.3,1.3,0,0,0,1.287-1.287,1.291,1.291,0,0,0-1.287-1.248H366.756l12.753-14.976a1.915,1.915,0,0,0,.624-1.365v-.078a1.331,1.331,0,0,0-1.443-1.209H364.3a1.3,1.3,0,0,0-1.287,1.287,1.265,1.265,0,0,0,1.287,1.248h11.778L363.324-2.652a1.915,1.915,0,0,0-.624,1.365v.078A1.356,1.356,0,0,0,364.143,0ZM391.56.429a8.836,8.836,0,0,0,7.293-3.471v1.833A1.384,1.384,0,0,0,400.3.195a1.425,1.425,0,0,0,1.443-1.482V-12.324a7.958,7.958,0,0,0-2.067-5.889c-1.482-1.482-3.666-2.223-6.513-2.223a15.9,15.9,0,0,0-6.591,1.365,1.375,1.375,0,0,0-.819,1.248,1.333,1.333,0,0,0,1.326,1.287,1.531,1.531,0,0,0,.546-.117,12.588,12.588,0,0,1,5.226-1.131c3.783,0,6.006,1.872,6.006,5.5v.7a21.409,21.409,0,0,0-6.2-.858c-5.109,0-8.619,2.262-8.619,6.513v.078C384.033-1.716,387.816.429,391.56.429Zm.585-2.379c-2.73,0-5.07-1.482-5.07-4.017v-.078c0-2.535,2.106-4.173,5.889-4.173a21.032,21.032,0,0,1,5.928.858v1.95C398.892-4.212,395.85-1.95,392.145-1.95Zm15.99.624A1.5,1.5,0,0,0,409.656.195a1.49,1.49,0,0,0,1.482-1.521V-8.19c0-5.811,3.2-8.736,7.1-9.2a1.49,1.49,0,0,0,1.326-1.521,1.444,1.444,0,0,0-1.482-1.521c-2.535,0-5.46,2.028-6.942,5.382v-3.783a1.5,1.5,0,0,0-1.521-1.521,1.515,1.515,0,0,0-1.482,1.521ZM442.377.351a7.585,7.585,0,0,0,2.964-.546,1.254,1.254,0,0,0,.858-1.17,1.3,1.3,0,0,0-1.287-1.287,8.5,8.5,0,0,1-1.833.273c-2.028,0-3.393-.9-3.393-3.354V-17.511h5.226a1.349,1.349,0,0,0,1.365-1.326,1.375,1.375,0,0,0-1.365-1.326h-5.226v-4.758a1.549,1.549,0,0,0-1.521-1.521,1.49,1.49,0,0,0-1.482,1.521v4.758h-1.638a1.34,1.34,0,0,0-1.326,1.326,1.367,1.367,0,0,0,1.326,1.326h1.638V-5.343C436.683-1.248,439.14.351,442.377.351Zm26.286-19.188a1.49,1.49,0,0,0-1.482-1.521,1.466,1.466,0,0,0-1.482,1.521V-8.619A5.954,5.954,0,0,1,459.654-2.3c-3.549,0-5.577-2.34-5.577-6.084V-18.837a1.523,1.523,0,0,0-1.521-1.521,1.466,1.466,0,0,0-1.482,1.521V-7.644c0,4.8,2.847,8.073,7.722,8.073a7.681,7.681,0,0,0,6.9-3.939v2.184A1.49,1.49,0,0,0,467.181.195a1.49,1.49,0,0,0,1.482-1.521ZM482.079.39c4.017,0,7.176-2.223,7.176-6.045v-.078c0-3.627-3.354-4.836-6.474-5.772-2.691-.819-5.187-1.56-5.187-3.471v-.078c0-1.677,1.521-2.925,3.9-2.925a10.912,10.912,0,0,1,5.265,1.56,1.508,1.508,0,0,0,.663.156,1.307,1.307,0,0,0,1.326-1.287,1.458,1.458,0,0,0-.741-1.248,14.046,14.046,0,0,0-6.435-1.716c-3.978,0-6.864,2.3-6.864,5.772v.078c0,3.7,3.51,4.8,6.669,5.694,2.652.741,5.031,1.521,5.031,3.549v.078c0,1.95-1.755,3.2-4.173,3.2a11.328,11.328,0,0,1-6.4-2.145,1.2,1.2,0,0,0-.741-.234,1.307,1.307,0,0,0-1.326,1.287,1.356,1.356,0,0,0,.546,1.092A13.952,13.952,0,0,0,482.079.39ZM525.72-27.144a1.5,1.5,0,0,0-1.521-1.521,1.466,1.466,0,0,0-1.482,1.521V-16.3a9.1,9.1,0,0,0-7.722-4.29c-4.836,0-9.633,3.9-9.633,10.491v.078c0,6.63,4.8,10.452,9.633,10.452,3.705,0,6.084-2.067,7.722-4.485v2.73A1.5,1.5,0,0,0,524.238.195a1.49,1.49,0,0,0,1.482-1.521ZM515.541-17.9a7.493,7.493,0,0,1,7.293,7.761v.078a7.529,7.529,0,0,1-7.293,7.8c-3.783,0-7.1-3.042-7.1-7.8v-.078C508.443-15.015,511.641-17.9,515.541-17.9ZM538.434.429a8.836,8.836,0,0,0,7.293-3.471v1.833a1.384,1.384,0,0,0,1.443,1.4,1.425,1.425,0,0,0,1.443-1.482V-12.324a7.959,7.959,0,0,0-2.067-5.889c-1.482-1.482-3.666-2.223-6.513-2.223a15.9,15.9,0,0,0-6.591,1.365,1.375,1.375,0,0,0-.819,1.248,1.333,1.333,0,0,0,1.326,1.287,1.531,1.531,0,0,0,.546-.117,12.588,12.588,0,0,1,5.226-1.131c3.783,0,6.006,1.872,6.006,5.5v.7a21.409,21.409,0,0,0-6.2-.858c-5.109,0-8.619,2.262-8.619,6.513v.078C530.907-1.716,534.69.429,538.434.429Zm.585-2.379c-2.73,0-5.07-1.482-5.07-4.017v-.078c0-2.535,2.106-4.173,5.889-4.173a21.032,21.032,0,0,1,5.928.858v1.95C545.766-4.212,542.724-1.95,539.019-1.95Zm22.542,2.3a7.586,7.586,0,0,0,2.964-.546,1.254,1.254,0,0,0,.858-1.17A1.3,1.3,0,0,0,564.1-2.652a8.5,8.5,0,0,1-1.833.273c-2.028,0-3.393-.9-3.393-3.354V-17.511H564.1a1.348,1.348,0,0,0,1.365-1.326,1.375,1.375,0,0,0-1.365-1.326H558.87v-4.758a1.549,1.549,0,0,0-1.521-1.521,1.49,1.49,0,0,0-1.482,1.521v4.758h-1.638a1.34,1.34,0,0,0-1.326,1.326,1.367,1.367,0,0,0,1.326,1.326h1.638V-5.343C555.867-1.248,558.324.351,561.561.351Zm17.628.117a10.469,10.469,0,0,0,10.569-10.53v-.078a10.362,10.362,0,0,0-10.491-10.452,10.436,10.436,0,0,0-10.53,10.53v.078A10.329,10.329,0,0,0,579.189.468Zm.078-2.691a7.564,7.564,0,0,1-7.449-7.839v-.078c0-4.251,3-7.8,7.371-7.8a7.63,7.63,0,0,1,7.488,7.878v.078A7.44,7.44,0,0,1,579.267-2.223ZM601.848.39c4.017,0,7.176-2.223,7.176-6.045v-.078c0-3.627-3.354-4.836-6.474-5.772-2.691-.819-5.187-1.56-5.187-3.471v-.078c0-1.677,1.521-2.925,3.9-2.925a10.912,10.912,0,0,1,5.265,1.56,1.508,1.508,0,0,0,.663.156,1.307,1.307,0,0,0,1.326-1.287,1.458,1.458,0,0,0-.741-1.248,14.046,14.046,0,0,0-6.435-1.716c-3.978,0-6.864,2.3-6.864,5.772v.078c0,3.7,3.51,4.8,6.669,5.694,2.652.741,5.031,1.521,5.031,3.549v.078c0,1.95-1.755,3.2-4.173,3.2a11.328,11.328,0,0,1-6.4-2.145,1.2,1.2,0,0,0-.741-.234,1.307,1.307,0,0,0-1.326,1.287,1.356,1.356,0,0,0,.546,1.092A13.952,13.952,0,0,0,601.848.39Z" transform="translate(-2.652 28.665)"/></svg>