<svg xmlns="http://www.w3.org/2000/svg" xmlns:xlink="http://www.w3.org/1999/xlink" width="400" height="400" viewBox="0 0 400 400"><defs><style>.a{fill:none;stroke:#ae63a0;stroke-miterlimit:10;}.b{fill:url(#a);}.c{fill:url(#b);}.d{fill:url(#c);}.e{fill:url(#d);}.f{fill:url(#e);}.g{fill:url(#f);}.h{fill:url(#g);}.i{fill:url(#h);}.j{fill:url(#i);}.k{fill:url(#j);}.l{fill:url(#k);}.m{fill:url(#l);}</style><linearGradient id="a" x1="0.477" y1="0.315" x2="1" y2="0.315" gradientUnits="objectBoundingBox"><stop offset="0" stop-color="#b31a8f"/><stop offset="1" stop-color="#fe117e"/></linearGradient><linearGradient id="b" x1="0.13" y1="-0.273" x2="1" y2="-0.273" gradientUnits="objectBoundingBox"><stop offset="0" stop-color="#ff9036"/><stop offset="1" stop-color="#ffbd0c"/></linearGradient><linearGradient id="c" x1="-0.029" y1="-0.364" x2="0.999" y2="-0.364" gradientUnits="objectBoundingBox"><stop offset="0" stop-color="#a78bf8"/><stop offset="1" stop-color="#ffa9ff"/></linearGradient><linearGradient id="d" x1="0" y1="1.361" x2="1.028" y2="1.361" xlink:href="#c"/><linearGradient id="e" x1="-0.001" y1="0.685" x2="0.522" y2="0.685" xlink:href="#a"/><linearGradient id="f" x1="-0.001" y1="1.273" x2="0.869" y2="1.273" xlink:href="#b"/><linearGradient id="g" x1="0.999" y1="0.487" x2="1.731" y2="0.487" gradientUnits="objectBoundingBox"><stop offset="0" stop-color="#ffd5cb"/><stop offset="1" stop-color="#fffedc"/></linearGradient><linearGradient id="h" x1="0.434" y1="0.567" x2="2.092" y2="0.567" gradientUnits="objectBoundingBox"><stop offset="0" stop-color="#9e259a"/><stop offset="1" stop-color="#a823c7"/></linearGradient><linearGradient id="i" x1="0.001" y1="0.743" x2="1.371" y2="0.743" gradientUnits="objectBoundingBox"><stop offset="0" stop-color="#2061a4"/><stop offset="1" stop-color="#3ba2b6"/></linearGradient><linearGradient id="j" x1="-0.37" y1="0.259" x2="0.999" y2="0.259" xlink:href="#i"/><linearGradient id="k" x1="-0.733" y1="0.514" x2="-0.001" y2="0.514" xlink:href="#g"/><linearGradient id="l" x1="-1.096" y1="0.433" x2="0.565" y2="0.433" gradientUnits="objectBoundingBox"><stop offset="0" stop-color="#ff00f3"/><stop offset="1" stop-color="#893185"/></linearGradient></defs><path class="a" d="M216.141,178.718l-.075.071.2.06Z" transform="translate(-16.14 21.308)"/><path class="a" d="M216.184,178.749l-.21.2.437-.1-.03-.031Z" transform="translate(-16.259 21.348)"/><path class="b" d="M324.8,261.62l-136.46-145.7a198.5,198.5,0,0,0-54.579,87.839l190.962,57.929Z" transform="translate(-125.235 -62.032)"/><path class="c" d="M138.614,153.782a200.678,200.678,0,0,0-3,104.628l193.758-46.5.209-.195Z" transform="translate(-130.087 -11.631)"/><path class="d" d="M180.811,315.026,326.225,178.833l-193.758,46.5A198.627,198.627,0,0,0,180.811,315.026Z" transform="translate(-126.944 21.686)"/><path class="a" d="M216.18,178.806l.041-.01-.071-.022Z" transform="translate(-16.027 21.382)"/><path class="e" d="M361.794,119.906,216.1,256.363l.121.132.072.021L410.229,209.97A198.617,198.617,0,0,0,361.794,119.906Z" transform="translate(-15.661 -56.565)"/><path class="f" d="M216.163,178.793,352.47,324.329A198.489,198.489,0,0,0,407,236.662L216.2,178.784Z" transform="translate(-15.575 21.83)"/><path class="g" d="M410.12,158.723,216.181,205.269l190.792,57.878A200.72,200.72,0,0,0,410.12,158.723Z" transform="translate(-15.551 -5.074)"/><path class="a" d="M216.109,178.748l.075-.071.047.2Z" transform="translate(-16.081 21.253)"/><path class="a" d="M216.142,178.789l.21-.2-.133.429-.029-.032Z" transform="translate(-16.038 21.141)"/><path class="h" d="M293.754,289.329,157.3,143.632a198.489,198.489,0,0,1,91.22-48.715l45.314,194.342Z" transform="translate(-93.954 -89.766)"/><path class="i" d="M196.612,97.848a200.711,200.711,0,0,1,104.6,3.845l-59.078,190.3-.209.2Z" transform="translate(-41.802 -92.697)"/><path class="j" d="M361.645,150.684,216.232,286.874l59.078-190.3A198.636,198.636,0,0,1,361.645,150.684Z" transform="translate(-15.484 -87.578)"/><path class="a" d="M216.192,178.8l-.013.041-.017-.072Z" transform="translate(-16.012 21.368)"/><path class="k" d="M153.315,315.167l145.7-136.46.123.132.016.072L240.02,369.388A198.6,198.6,0,0,1,153.315,315.167Z" transform="translate(-99.42 21.729)"/><path class="l" d="M216.183,178.777,352.489,324.313a198.483,198.483,0,0,1-91.048,48.674L216.169,178.819Z" transform="translate(-15.776 21.821)"/><path class="m" d="M190.684,369.272,249.815,178.8l45.272,194.168A200.685,200.685,0,0,1,190.684,369.272Z" transform="translate(-49.669 21.845)"/></svg>