<svg xmlns="http://www.w3.org/2000/svg" xmlns:xlink="http://www.w3.org/1999/xlink" width="719.529" height="720.297" viewBox="0 0 719.529 720.297"><defs><style>.a{fill:none;stroke:#ae63a0;stroke-miterlimit:10;}.b{fill:url(#a);}.c{fill:url(#b);}.d{fill:url(#c);}.e{fill:url(#d);}.f{fill:url(#e);}.g{fill:url(#f);}.h{fill:url(#g);}.i{fill:url(#h);}.j{fill:url(#i);}.k{fill:url(#j);}.l{fill:url(#k);}.m{fill:url(#l);}</style><linearGradient id="a" x1="0.477" y1="0.315" x2="1" y2="0.315" gradientUnits="objectBoundingBox"><stop offset="0" stop-color="#b31a8f"/><stop offset="1" stop-color="#fe117e"/></linearGradient><linearGradient id="b" x1="0.13" y1="-0.273" x2="1" y2="-0.273" gradientUnits="objectBoundingBox"><stop offset="0" stop-color="#ff9036"/><stop offset="1" stop-color="#ffbd0c"/></linearGradient><linearGradient id="c" x1="-0.029" y1="-0.364" x2="0.999" y2="-0.364" gradientUnits="objectBoundingBox"><stop offset="0" stop-color="#a78bf8"/><stop offset="1" stop-color="#ffa9ff"/></linearGradient><linearGradient id="d" x1="0" y1="1.361" x2="1.028" y2="1.361" xlink:href="#c"/><linearGradient id="e" x1="-0.001" y1="0.685" x2="0.522" y2="0.685" xlink:href="#a"/><linearGradient id="f" x1="-0.001" y1="1.273" x2="0.869" y2="1.273" xlink:href="#b"/><linearGradient id="g" x1="0.999" y1="0.487" x2="1.731" y2="0.487" gradientUnits="objectBoundingBox"><stop offset="0" stop-color="#ffd5cb"/><stop offset="1" stop-color="#fffedc"/></linearGradient><linearGradient id="h" x1="0.434" y1="0.567" x2="2.092" y2="0.567" gradientUnits="objectBoundingBox"><stop offset="0.006" stop-color="#f20044"/><stop offset="0.989" stop-color="#ff4a33"/></linearGradient><linearGradient id="i" x1="0.001" y1="0.743" x2="1.371" y2="0.743" gradientUnits="objectBoundingBox"><stop offset="0" stop-color="#2061a4"/><stop offset="1" stop-color="#3ba2b6"/></linearGradient><linearGradient id="j" x1="-0.37" y1="0.259" x2="0.999" y2="0.259" xlink:href="#i"/><linearGradient id="k" x1="-0.733" y1="0.514" x2="-0.001" y2="0.514" xlink:href="#g"/><linearGradient id="l" x1="-1.096" y1="0.433" x2="0.565" y2="0.433" xlink:href="#h"/></defs><g transform="translate(278.056 -60.021) rotate(34)"><path class="a" d="M216.18,178.718l-.114.107.3.091Z" transform="translate(86.488 123.987)"/><path class="a" d="M216.293,178.749l-.318.3.662-.159-.045-.048Z" transform="translate(86.261 124.063)"/><path class="b" d="M423.5,336.893,216.538,115.924a301.06,301.06,0,0,0-82.776,133.22L423.382,337Z" transform="translate(-120.829 -34.189)"/><path class="c" d="M143.02,153.782a304.356,304.356,0,0,0-4.557,158.683l293.86-70.53.317-.3Z" transform="translate(-130.087 61.173)"/><path class="d" d="M205.788,385.388,426.327,178.833l-293.86,70.53A301.244,301.244,0,0,0,205.788,385.388Z" transform="translate(-124.091 124.276)"/><path class="a" d="M216.2,178.822l.063-.015-.108-.033Z" transform="translate(86.703 124.129)"/><path class="e" d="M437.067,119.906,216.1,326.862l.183.2.109.032L510.525,256.5A301.23,301.23,0,0,0,437.067,119.906Z" transform="translate(86.571 -24.158)"/><path class="f" d="M216.163,178.8,422.891,399.524a301.037,301.037,0,0,0,82.7-132.96l-289.363-87.78Z" transform="translate(86.734 124.152)"/><path class="g" d="M510.316,158.723,216.181,229.317,505.544,317.1A304.42,304.42,0,0,0,510.316,158.723Z" transform="translate(86.78 73.62)"/><path class="a" d="M216.109,178.784l.114-.107.071.3Z" transform="translate(86.599 123.883)"/><path class="a" d="M216.142,178.89l.318-.3-.2.65-.045-.048Z" transform="translate(86.681 123.67)"/><path class="h" d="M364.253,389.769,157.3,168.8A301.037,301.037,0,0,1,295.644,94.917l68.725,294.747Z" transform="translate(-61.546 -87.104)"/><path class="i" d="M196.612,100.51a304.406,304.406,0,0,1,158.641,5.831l-89.6,288.617-.317.3Z" transform="translate(37.487 -92.697)"/><path class="j" d="M436.771,178.639,216.232,385.191l89.6-288.617A301.26,301.26,0,0,1,436.771,178.639Z" transform="translate(86.908 -82.93)"/><path class="a" d="M216.207,178.812l-.019.062-.026-.11Z" transform="translate(86.732 124.101)"/><path class="k" d="M153.315,385.667l220.969-206.96.187.2.025.109L284.814,467.9A301.206,301.206,0,0,1,153.315,385.667Z" transform="translate(-71.576 123.958)"/><path class="l" d="M216.19,178.777,422.918,399.5a301.026,301.026,0,0,1-138.087,73.82L216.169,178.84Z" transform="translate(86.75 124.134)"/><path class="m" d="M190.684,467.679,280.364,178.8l68.662,294.483A304.368,304.368,0,0,1,190.684,467.679Z" transform="translate(22.554 124.18)"/></g></svg>