<svg xmlns="http://www.w3.org/2000/svg" xmlns:xlink="http://www.w3.org/1999/xlink" width="468.685" height="171.767" viewBox="0 0 468.685 171.767"><defs><style>.a{mix-blend-mode:multiply;isolation:isolate;}.b,.z{fill:#fff;}.b,.y{opacity:0;}.aa,.c{opacity:0.048;}.c{fill:url(#a);}.ac,.d{opacity:0.095;}.d{fill:url(#b);}.ae,.e{opacity:0.143;}.e{fill:url(#c);}.ag,.f{opacity:0.19;}.f{fill:url(#d);}.ai,.g{opacity:0.238;}.g{fill:url(#e);}.ak,.h{opacity:0.286;}.h{fill:url(#f);}.am,.i{opacity:0.333;}.i{fill:url(#g);}.ao,.j{opacity:0.381;}.j{fill:url(#h);}.aq,.k{opacity:0.429;}.k{fill:url(#i);}.as,.l{opacity:0.476;}.l{fill:url(#j);}.au,.m{opacity:0.524;}.m{fill:url(#k);}.aw,.n{opacity:0.571;}.n{fill:url(#l);}.ay,.o{opacity:0.619;}.o{fill:url(#m);}.ba,.p{opacity:0.667;}.p{fill:url(#n);}.bc,.q{opacity:0.714;}.q{fill:url(#o);}.be,.r{opacity:0.762;}.r{fill:url(#p);}.bg,.s{opacity:0.81;}.s{fill:url(#q);}.bi,.t{opacity:0.857;}.t{fill:url(#r);}.bk,.u{opacity:0.905;}.u{fill:url(#s);}.bm,.v{opacity:0.952;}.v{fill:url(#t);}.w{fill:url(#u);}.x{fill:url(#v);}.ab{fill:#f9f9f9;}.ad{fill:#f3f2f3;}.af{fill:#edecec;}.ah{fill:#e8e6e6;}.aj{fill:#e2dfe0;}.al{fill:#dcd9da;}.an{fill:#d6d3d4;}.ap{fill:#d0cccd;}.ar{fill:#cac6c7;}.at{fill:#c4c0c1;}.av{fill:#bfb9bb;}.ax{fill:#b9b3b5;}.az{fill:#b3adaf;}.bb{fill:#ada6a8;}.bd{fill:#a7a0a2;}.bf{fill:#a19a9c;}.bh{fill:#9b9396;}.bj{fill:#968d90;}.bl{fill:#908789;}.bn{fill:#8a8083;}.bo{fill:#847a7d;}.bp{fill:url(#w);}.bq{fill:#ffa127;}.br{fill:none;stroke:#fff;stroke-miterlimit:10;stroke-width:0.933px;}</style><linearGradient id="a" y1="0.5" x2="1" y2="0.5" gradientUnits="objectBoundingBox"><stop offset="0" stop-color="#f6f6f6"/><stop offset="0.5" stop-color="#f6f6f6"/><stop offset="1" stop-color="#f7f7f7"/></linearGradient><linearGradient id="b" y1="0.5" x2="1" y2="0.5" gradientUnits="objectBoundingBox"><stop offset="0" stop-color="#eee"/><stop offset="0.5" stop-color="#eee"/><stop offset="1" stop-color="#eeeeef"/></linearGradient><linearGradient id="c" y1="0.5" x2="1" y2="0.5" gradientUnits="objectBoundingBox"><stop offset="0" stop-color="#e5e5e5"/><stop offset="0.5" stop-color="#e5e5e5"/><stop offset="1" stop-color="#e6e6e6"/></linearGradient><linearGradient id="d" y1="0.5" x2="1" y2="0.5" gradientUnits="objectBoundingBox"><stop offset="0" stop-color="#ddd"/><stop offset="0.5" stop-color="#dddcdd"/><stop offset="1" stop-color="#deddde"/></linearGradient><linearGradient id="e" y1="0.5" x2="1" y2="0.5" gradientUnits="objectBoundingBox"><stop offset="0" stop-color="#d4d4d4"/><stop offset="0.5" stop-color="#d4d4d4"/><stop offset="1" stop-color="#d6d5d6"/></linearGradient><linearGradient id="f" y1="0.5" x2="1" y2="0.5" gradientUnits="objectBoundingBox"><stop offset="0" stop-color="#ccc"/><stop offset="0.5" stop-color="#cbcbcc"/><stop offset="1" stop-color="#cdccce"/></linearGradient><linearGradient id="g" y1="0.5" x2="1" y2="0.5" gradientUnits="objectBoundingBox"><stop offset="0" stop-color="#c3c3c3"/><stop offset="0.5" stop-color="#c3c2c3"/><stop offset="1" stop-color="#c5c4c6"/></linearGradient><linearGradient id="h" y1="0.5" x2="1" y2="0.5" gradientUnits="objectBoundingBox"><stop offset="0" stop-color="#bababa"/><stop offset="0.5" stop-color="#bababa"/><stop offset="1" stop-color="#bdbbbd"/></linearGradient><linearGradient id="i" y1="0.5" x2="1" y2="0.5" gradientUnits="objectBoundingBox"><stop offset="0" stop-color="#b2b2b2"/><stop offset="0.5" stop-color="#b1b1b2"/><stop offset="1" stop-color="#b4b3b5"/></linearGradient><linearGradient id="j" y1="0.5" x2="1" y2="0.5" gradientUnits="objectBoundingBox"><stop offset="0" stop-color="#a9a9a9"/><stop offset="0.5" stop-color="#a9a8a9"/><stop offset="1" stop-color="#acaaad"/></linearGradient><linearGradient id="k" y1="0.5" x2="1" y2="0.5" gradientUnits="objectBoundingBox"><stop offset="0" stop-color="#a1a1a1"/><stop offset="0.5" stop-color="#a0a0a1"/><stop offset="1" stop-color="#a4a2a5"/></linearGradient><linearGradient id="l" y1="0.5" x2="1" y2="0.5" gradientUnits="objectBoundingBox"><stop offset="0" stop-color="#989898"/><stop offset="0.5" stop-color="#989798"/><stop offset="1" stop-color="#9c999d"/></linearGradient><linearGradient id="m" y1="0.5" x2="1" y2="0.5" gradientUnits="objectBoundingBox"><stop offset="0" stop-color="#909090"/><stop offset="0.5" stop-color="#8f8e90"/><stop offset="1" stop-color="#939195"/></linearGradient><linearGradient id="n" y1="0.5" x2="1" y2="0.5" gradientUnits="objectBoundingBox"><stop offset="0" stop-color="#878787"/><stop offset="0.5" stop-color="#868687"/><stop offset="1" stop-color="#8b888c"/></linearGradient><linearGradient id="o" y1="0.5" x2="1" y2="0.5" gradientUnits="objectBoundingBox"><stop offset="0" stop-color="#7e7e7e"/><stop offset="0.5" stop-color="#7e7d7e"/><stop offset="1" stop-color="#838084"/></linearGradient><linearGradient id="p" y1="0.5" x2="1" y2="0.5" gradientUnits="objectBoundingBox"><stop offset="0" stop-color="#767676"/><stop offset="0.5" stop-color="#757476"/><stop offset="1" stop-color="#7a777c"/></linearGradient><linearGradient id="q" y1="0.5" x2="1" y2="0.5" gradientUnits="objectBoundingBox"><stop offset="0" stop-color="#6d6d6d"/><stop offset="0.5" stop-color="#6c6c6d"/><stop offset="1" stop-color="#726f74"/></linearGradient><linearGradient id="r" y1="0.5" x2="1" y2="0.5" gradientUnits="objectBoundingBox"><stop offset="0" stop-color="#656565"/><stop offset="0.5" stop-color="#646365"/><stop offset="1" stop-color="#6a666c"/></linearGradient><linearGradient id="s" y1="0.5" x2="1" y2="0.5" gradientUnits="objectBoundingBox"><stop offset="0" stop-color="#5c5c5c"/><stop offset="0.5" stop-color="#5b5a5c"/><stop offset="1" stop-color="#625e63"/></linearGradient><linearGradient id="t" y1="0.5" x2="1" y2="0.5" gradientUnits="objectBoundingBox"><stop offset="0" stop-color="#545454"/><stop offset="0.5" stop-color="#535254"/><stop offset="1" stop-color="#59555b"/></linearGradient><linearGradient id="u" x1="-2.365" y1="15.616" x2="-2.032" y2="15.616" gradientUnits="objectBoundingBox"><stop offset="0" stop-color="#4b4b4b"/><stop offset="0.5" stop-color="#4a494b"/><stop offset="1" stop-color="#514d53"/></linearGradient><linearGradient id="v" x1="0.909" y1="0.627" x2="0.076" y2="0.64" gradientUnits="objectBoundingBox"><stop offset="0" stop-color="#882f83"/><stop offset="0.512" stop-color="#570e4d"/><stop offset="0.64" stop-color="#63175b"/><stop offset="1" stop-color="#883084"/></linearGradient><linearGradient id="w" x1="0.954" y1="0.5" x2="-0.088" y2="0.5" gradientUnits="objectBoundingBox"><stop offset="0" stop-color="#62d3e0"/><stop offset="0.153" stop-color="#8ed4dc"/><stop offset="0.251" stop-color="#98d4db"/><stop offset="0.448" stop-color="#2977aa"/><stop offset="0.798" stop-color="#94cbd1"/><stop offset="1" stop-color="#a4f4fd"/></linearGradient></defs><g transform="translate(-164.524 -147.858)"><g class="a"><path class="b" d="M503.291,246.394l-15.27,57.378c-2.569,2.768-2.5,4.257-5.072,7.026l-.3,3.2c-29.156-7.817-46.954-13.979-77.293-13.979s-54.445,8.725-83.6,16.542l-2.854-4.794L280.811,252.48l18.075-6.762A411.912,411.912,0,0,1,405.512,231.71c36.085,0,62.229,5.045,96.9,14.339Z"/><path class="c" d="M281.671,252.158c.241-.063,17.7-6.562,17.953-6.618a411.647,411.647,0,0,1,105.753-13.83c35.981,0,62.315,5.187,96.883,14.441l.881.345-.523,2.427L488.045,303.68a18.415,18.415,0,0,0-1.286,1.415c-1.414,1.773-1.864,3.078-3.92,5.166-.048-.011-.378,3.024-.426,3.014-28.934-7.7-47.082-13.661-77.182-13.661-29.848,0-53.884,8.128-82.438,15.829-.387.105-.829.23-1.218.334l-2.968-4.47L286.034,259.7Z"/><path class="d" d="M282.532,251.836c.482-.125,17.329-6.362,17.829-6.473A411.4,411.4,0,0,1,405.242,231.71c35.877,0,62.4,5.329,96.868,14.543l.882.344-.38,2.35-14.543,54.642c-.464.5-.993.877-1.3,1.3-1.448,1.657-1.978,2.872-4.036,4.831-.1-.022-.458,2.85-.553,2.829-28.713-7.587-47.211-13.342-77.071-13.342-29.781,0-54,7.773-82.495,15.445-.368.1-.845.24-1.214.339l-3.083-4.147-32.043-51.7Z"/><path class="e" d="M283.393,251.514c.722-.188,16.955-6.162,17.706-6.328A411.186,411.186,0,0,1,405.107,231.71c35.772,0,62.486,5.471,96.854,14.645l.881.344-.237,2.272L488.094,303.5c-.44.474-1.031.789-1.326,1.193a54.326,54.326,0,0,1-4.151,4.5c-.142-.034-.539,2.676-.681,2.644-28.491-7.473-47.339-13.024-76.96-13.024-29.713,0-54.114,7.418-82.552,15.061-.348.094-.861.25-1.21.344l-3.2-3.824L286.5,258.605Z"/><path class="f" d="M284.254,251.192c.963-.251,16.581-5.962,17.583-6.183a411.026,411.026,0,0,1,103.135-13.3c35.668,0,62.571,5.612,96.839,14.747l.882.343-.094,2.195L488.118,303.4c-.415.448-1.067.7-1.346,1.082-1.512,1.426-2.205,2.459-4.265,4.161-.19-.044-.62,2.5-.81,2.46-28.27-7.358-47.467-12.706-76.849-12.706-29.645,0-54.229,7.063-82.608,14.676-.329.089-.877.261-1.207.349l-3.312-3.5-30.982-51.869Z"/><path class="g" d="M285.114,250.87c1.2-.313,16.208-5.761,17.46-6.038A410.94,410.94,0,0,1,404.837,231.71c35.563,0,62.657,5.754,96.824,14.849l.882.342.05,2.118-14.45,54.295c-.391.421-1.1.611-1.366.97-1.546,1.311-2.32,2.253-4.381,3.826-.237-.055-.7,2.328-.938,2.276C453.41,303.142,433.863,298,404.72,298c-29.578,0-54.344,6.71-82.665,14.293-.309.084-.892.271-1.2.354l-3.427-3.177-30.451-51.955Z"/><path class="h" d="M285.975,250.548c1.445-.376,15.835-5.561,17.337-5.894A410.936,410.936,0,0,1,404.7,231.71c35.459,0,62.743,5.9,96.809,14.951l.882.342.193,2.04-14.419,54.179c-.366.4-1.14.523-1.386.859-1.578,1.2-2.433,2.047-4.5,3.492-.284-.067-.781,2.153-1.066,2.09-27.826-7.128-47.723-12.07-76.626-12.07-29.511,0-54.46,6.355-82.722,13.909-.29.078-.909.281-1.2.359l-3.541-2.854-29.921-52.042Z"/><path class="i" d="M286.836,250.226c1.686-.438,15.461-5.361,17.214-5.749A410.947,410.947,0,0,1,404.567,231.71c35.355,0,62.828,6.038,96.8,15.053l.882.341.336,1.963-14.389,54.064c-.342.368-1.176.434-1.406.748-1.61,1.079-2.547,1.84-4.61,3.156-.332-.077-.862,1.979-1.195,1.906-27.6-7.014-47.851-11.752-76.515-11.752-29.443,0-54.574,6-82.779,13.525-.27.073-.924.291-1.2.364l-3.656-2.531-29.39-52.128Z"/><path class="j" d="M287.7,249.9c1.927-.5,15.087-5.161,17.09-5.6a411.035,411.035,0,0,1,99.645-12.59c35.25,0,62.914,6.179,96.78,15.155l.882.34.48,1.886-14.358,53.948c-.318.342-1.213.345-1.426.637-1.644.964-2.661,1.634-4.726,2.821-.379-.088-.943,1.806-1.323,1.722-27.382-6.9-47.979-11.434-76.4-11.434-29.375,0-54.689,5.645-82.835,13.141-.251.068-.941.3-1.193.369l-3.77-2.207-28.86-52.216Z"/><path class="k" d="M288.557,249.582c2.168-.563,14.714-4.961,16.968-5.459A411.176,411.176,0,0,1,404.3,231.71c35.146,0,63,6.321,96.765,15.257l.883.34.622,1.808L488.24,302.947c-.293.316-1.249.257-1.446.526-1.676.849-2.775,1.428-4.84,2.487-.427-.1-1.024,1.631-1.452,1.537-27.16-6.785-48.107-11.116-76.292-11.116-29.309,0-54.8,5.29-82.892,12.756-.233.063-.957.312-1.19.375l-3.884-1.884-28.33-52.3Z"/><path class="l" d="M289.418,249.26c2.409-.626,14.341-4.76,16.844-5.314a411.4,411.4,0,0,1,97.9-12.236c35.041,0,63.085,6.463,96.75,15.359l.883.339.766,1.731-14.3,53.717c-.269.289-1.286.168-1.467.414-1.708.734-2.889,1.222-4.955,2.152-.474-.11-1.1,1.457-1.58,1.352-26.938-6.67-48.235-10.8-76.181-10.8-29.241,0-54.92,4.935-82.949,12.372-.213.058-.972.322-1.186.38l-4-1.561-27.8-52.389Z"/><path class="m" d="M290.279,248.938c2.649-.689,13.967-4.56,16.721-5.17a411.741,411.741,0,0,1,97.027-12.058c34.937,0,63.17,6.6,96.736,15.461l.883.339.909,1.653-14.266,53.6c-.244.263-1.322.079-1.486.3-1.742.617-3,1.015-5.071,1.816-.521-.121-1.185,1.283-1.707,1.168-26.717-6.555-48.364-10.48-76.071-10.48-29.173,0-55.034,4.581-83.005,11.989-.194.052-.989.332-1.183.385l-4.113-1.238-27.268-52.476Z"/><path class="n" d="M291.14,248.616c2.89-.751,13.593-4.36,16.6-5.025a412.1,412.1,0,0,1,96.154-11.881c34.833,0,63.256,6.747,96.721,15.563l.883.338,1.052,1.576-14.235,53.485c-.219.237-1.358-.009-1.506.193-1.774.5-3.117.809-5.185,1.482-.569-.133-1.266,1.109-1.836.983-26.5-6.441-48.492-10.162-75.96-10.162-29.1,0-55.149,4.227-83.062,11.605-.174.047-1,.343-1.179.389l-4.228-.914L288.62,253.686Z"/><path class="o" d="M292,248.294c3.132-.814,13.22-4.16,16.475-4.88a412.564,412.564,0,0,1,95.282-11.7c34.728,0,63.341,6.888,96.706,15.665l.883.337,1.2,1.5-14.2,53.37c-.2.21-1.4-.1-1.527.081-1.806.387-3.23.6-5.3,1.147-.616-.143-1.346.935-1.964.8-26.273-6.326-48.62-9.844-75.848-9.844-29.039,0-55.265,3.872-83.119,11.221-.155.041-1.02.353-1.176.394l-4.342-.591-26.207-52.649Z"/><path class="p" d="M292.861,247.972c3.372-.876,12.847-3.96,16.352-4.735a413.16,413.16,0,0,1,94.409-11.527c34.624,0,63.427,7.03,96.691,15.767l.884.337,1.339,1.421-14.174,53.254c-.171.184-1.431-.187-1.546-.03-1.84.272-3.345.4-5.415.813-.664-.155-1.428.76-2.093.613-26.051-6.211-48.748-9.525-75.737-9.525A317.9,317.9,0,0,0,320.395,305.2c-.135.037-1.036.364-1.172.4l-4.457-.268L289.09,252.593Z"/><path class="q" d="M293.722,247.65c3.613-.939,12.473-3.759,16.229-4.591,30.325-7.174,62.778-11.349,93.536-11.349,34.519,0,63.512,7.172,96.677,15.869l.883.336,1.482,1.344L488.387,302.4c-.147.158-1.468-.275-1.567-.14-1.872.155-3.458.19-5.53.477-.711-.166-1.508.586-2.221.429-25.829-6.1-48.876-9.207-75.626-9.207a319.281,319.281,0,0,0-83.232,10.452c-.116.031-1.052.374-1.169.4l-4.571.056-25.146-52.823Z"/><path class="r" d="M294.582,247.328c3.855-1,12.1-3.559,16.106-4.446,30.036-7.033,62.261-11.172,92.664-11.172,34.415,0,63.6,7.314,96.662,15.971l.884.335,1.625,1.267-14.112,53.023c-.122.131-1.5-.364-1.586-.252-1.9.04-3.573-.016-5.646.142-.758-.177-1.589.413-2.349.245a319.851,319.851,0,0,0-75.515-8.89c-28.835,0-55.609,2.808-83.289,10.069-.1.026-1.068.384-1.165.41l-4.686.379L289.56,251.5Z"/><path class="s" d="M295.443,247.006c4.1-1.064,11.726-3.359,15.983-4.3,29.747-6.892,61.743-10.995,91.791-10.995,34.311,0,63.683,7.455,96.647,16.073l.884.335,1.769,1.189-14.082,52.907c-.1.105-1.54-.453-1.606-.363-1.938-.075-3.686-.222-5.76-.192-.806-.188-1.67.238-2.478.06a324.809,324.809,0,0,0-75.4-8.572c-28.769,0-55.725,2.453-83.346,9.685-.077.021-1.084.394-1.162.415l-4.8.7-24.085-53Z"/><path class="t" d="M296.3,246.684c4.336-1.127,11.353-3.159,15.859-4.156,29.458-6.751,61.226-10.818,90.919-10.818,34.206,0,63.769,7.6,96.632,16.175l.884.334,1.912,1.112-14.05,52.791c-.073.079-1.577-.541-1.627-.474-1.97-.19-3.8-.428-5.875-.527-.853-.2-1.75.064-2.606-.125a330.094,330.094,0,0,0-75.292-8.253c-28.7,0-55.84,2.1-83.4,9.3-.058.016-1.1.4-1.158.421l-4.914,1.025L290.03,250.406Z"/><path class="u" d="M297.165,246.362c4.576-1.189,10.979-2.959,15.736-4.011,29.168-6.61,60.708-10.641,90.046-10.641,34.1,0,63.855,7.739,96.618,16.277l.884.333,2.055,1.035-14.02,52.676c-.049.052-1.614-.63-1.646-.585-2-.307-3.914-.635-5.991-.863-.9-.21-1.831-.11-2.733-.309-24.942-5.638-49.389-7.935-75.182-7.935-28.633,0-55.955,1.744-83.459,8.916-.039.011-1.116.415-1.155.426l-5.029,1.348L290.265,249.86Z"/><path class="v" d="M298.025,246.04c4.818-1.252,10.606-2.758,15.614-3.867,28.878-6.468,60.19-10.463,89.173-10.463,34,0,63.94,7.881,96.6,16.379l.884.333,2.2.957-13.988,52.56c-.025.026-1.651-.718-1.667-.7-2.036-.422-4.028-.841-6.105-1.2-.948-.221-1.912-.284-2.862-.494-24.72-5.524-49.518-7.617-75.071-7.617-28.565,0-56.069,1.389-83.515,8.532-.02,0-1.132.425-1.152.43l-5.143,1.672L290.5,249.313Z"/><path class="w" d="M502.491,249.4l-13.958,52.444-1.687-.807c-27.386-7.114-55.672-9.509-84.169-9.509s-56.185,1.034-83.573,8.148l-6.406,2.43-21.963-53.342,8.151-3.049c32.563-8.459,69.9-14.008,103.791-14.008s64.026,8.022,96.588,16.481Z"/></g><path class="x" d="M168.978,195.889,246.8,316.014a436.488,436.488,0,0,1,304.141.056L628.76,195.952c-69.9-28.995-147.784-45.284-229.97-45.284C316.666,150.668,238.842,166.935,168.978,195.889Z"/><g class="a"><g class="y"><path class="z" d="M620.71,213.992c-239.045-97.99-434.36-6.215-436.484-5.233L169.31,193.074c2.169-1.005,218.866-98.841,460.769.324Z"/></g><g class="aa"><path class="ab" d="M621.031,213.255c-239.045-97.99-435.252-5.988-437.377-5.005L169.31,193.074c2.169-1.005,218.866-98.841,460.769.324Z"/></g><g class="ac"><path class="ad" d="M621.351,212.517c-239.045-97.99-436.144-5.76-438.269-4.777L169.31,193.074c2.169-1.005,218.866-98.841,460.769.324Z"/></g><g class="ae"><path class="af" d="M621.672,211.78c-239.045-97.99-437.037-5.532-439.161-4.55l-13.2-14.156c2.169-1.005,218.866-98.841,460.769.324Z"/></g><g class="ag"><path class="ah" d="M621.992,211.042c-239.044-97.99-437.929-5.3-440.053-4.321L169.31,193.074c2.169-1.005,218.866-98.841,460.769.324Z"/></g><g class="ai"><path class="aj" d="M622.313,210.3c-239.045-97.99-438.822-5.075-440.946-4.093L169.31,193.074c2.169-1.005,218.866-98.841,460.769.324Z"/></g><g class="ak"><path class="al" d="M622.634,209.567c-239.045-97.99-439.715-4.848-441.839-3.865L169.31,193.074c2.169-1.005,218.866-98.841,460.769.324Z"/></g><g class="am"><path class="an" d="M622.954,208.829c-239.045-97.99-440.606-4.62-442.731-3.637L169.31,193.074c2.169-1.005,218.866-98.841,460.769.324Z"/></g><g class="ao"><path class="ap" d="M623.275,208.092c-239.045-97.99-441.5-4.392-443.624-3.41L169.31,193.074c2.169-1.005,218.866-98.841,460.769.324Z"/></g><g class="aq"><path class="ar" d="M623.6,207.354c-239.045-97.99-442.392-4.164-444.516-3.181l-9.77-11.1c2.169-1.005,218.866-98.841,460.769.324Z"/></g><g class="as"><path class="at" d="M623.916,206.616c-239.045-97.989-443.284-3.935-445.408-2.953l-9.2-10.589c2.169-1.005,218.866-98.841,460.769.324Z"/></g><g class="au"><path class="av" d="M624.237,205.879c-239.045-97.99-444.177-3.708-446.3-2.725l-8.626-10.08c2.169-1.005,218.866-98.841,460.769.324Z"/></g><g class="aw"><path class="ax" d="M624.557,205.141c-239.045-97.99-445.068-3.48-447.193-2.5l-8.054-9.57c2.169-1.005,218.866-98.841,460.769.324Z"/></g><g class="ay"><path class="az" d="M624.878,204.4c-239.045-97.99-445.961-3.252-448.086-2.27l-7.482-9.06c2.169-1.005,218.866-98.841,460.769.324Z"/></g><g class="ba"><path class="bb" d="M625.2,203.666c-239.045-97.99-446.854-3.024-448.978-2.041l-6.911-8.551c2.169-1.005,218.866-98.841,460.769.324Z"/></g><g class="bc"><path class="bd" d="M625.519,202.928c-239.045-97.989-447.746-2.795-449.87-1.813l-6.339-8.041c2.169-1.005,218.866-98.841,460.769.324Z"/></g><g class="be"><path class="bf" d="M625.84,202.191C386.8,104.2,177.2,199.623,175.077,200.606l-5.767-7.532c2.169-1.005,218.866-98.841,460.769.324Z"/></g><g class="bg"><path class="bh" d="M626.16,201.453c-239.045-97.99-449.531-2.339-451.655-1.357l-5.2-7.022c2.169-1.005,218.866-98.841,460.769.324Z"/></g><g class="bi"><path class="bj" d="M626.481,200.716c-239.045-97.99-450.423-2.112-452.548-1.13l-4.623-6.512c2.169-1.005,218.866-98.841,460.769.324Z"/></g><g class="bk"><path class="bl" d="M626.8,199.978c-239.045-97.99-451.316-1.884-453.441-.9l-4.051-6c2.169-1.005,218.866-98.841,460.769.324Z"/></g><g class="bm"><path class="bn" d="M627.122,199.24c-239.045-97.989-452.208-1.655-454.332-.673l-3.48-5.493c2.169-1.005,218.866-98.841,460.769.324Z"/></g><path class="bo" d="M627.443,198.5c-239.045-97.99-453.1-1.428-455.225-.445l-2.908-4.984c2.169-1.005,218.866-98.841,460.769.324Z"/></g><path class="bp" d="M552.282,319.625l-2.574-.966a433,433,0,0,0-301.683-.055l-2.563.966L164.524,194.638l3.123-1.295c72.819-30.181,150.586-45.485,231.142-45.485,80.624,0,158.446,15.321,231.3,45.545l3.117,1.3ZM398.789,285.887A433.42,433.42,0,0,1,549.6,312.522L624.3,197.212c-71.108-29.021-146.971-43.733-225.513-43.733-78.481,0-154.276,14.689-225.351,43.674l74.7,115.314A433.571,433.571,0,0,1,398.789,285.887Z"/><g transform="translate(0 -9)"><path class="z" d="M343.222,268.521a17.3,17.3,0,0,1-5.282,2.356,8.708,8.708,0,0,1-11.486-6.793c-1.3-5.374,1.411-10.211,7.447-11.705a11.472,11.472,0,0,1,4.691-.282l-.092,2.035a9.592,9.592,0,0,0-4.171.21c-4.379,1.083-6.562,4.514-5.445,9.027,1.13,4.566,4.547,6.582,8.739,5.545a7.808,7.808,0,0,0,2.98-1.247l-1.328-5.367-3.659.9-.462-1.869,5.928-1.467Z"/><path class="z" d="M352.974,261.6l-.967,6.064-2.443.4,3.247-19.309,2.85-.463,9.215,17.286-2.525.41-2.889-5.438Zm5.7-2.821-2.647-4.976c-.6-1.128-1.049-2.17-1.493-3.186l-.054.01c-.1,1.13-.213,2.291-.385,3.462l-.933,5.585Z"/><path class="z" d="M371.619,264.785l-1.56-18.468,2.6-.219,6.708,8.843a52.511,52.511,0,0,1,3.824,5.72l.051-.032c-.427-2.448-.672-4.69-.916-7.567l-.653-7.726,2.247-.19,1.562,18.467-2.412.2-6.656-8.875a58.754,58.754,0,0,1-3.972-5.873l-.08.034c.333,2.317.575,4.533.834,7.6l.667,7.891Z"/><path class="z" d="M396.658,257.376l-1.85,5.854-2.475.031,6.063-18.613,2.887-.036,6.559,18.453-2.558.033-2.052-5.8Zm6.055-1.947-1.882-5.312c-.428-1.205-.718-2.3-1.007-3.37h-.054c-.261,1.1-.549,2.235-.893,3.367L397.13,255.5Z"/><path class="z" d="M415.683,244.99a34.166,34.166,0,0,1,5.1-.1c3.434.193,5.832,1.127,7.368,2.728a8.542,8.542,0,0,1,2.235,6.792,9.8,9.8,0,0,1-3.068,7.044c-1.829,1.633-4.736,2.406-8.332,2.2a38.773,38.773,0,0,1-4.328-.464Zm1.469,16.5a15.016,15.016,0,0,0,2.407.272c5.108.288,8.042-2.412,8.323-7.409.273-4.365-2.042-7.278-7.094-7.561a13.627,13.627,0,0,0-2.815.089Z"/><path class="z" d="M453.9,257.343c-.788,6.333-5.053,9.213-9.748,8.629-4.86-.6-7.8-4.794-7.112-10.363.725-5.842,4.83-9.212,9.744-8.6C451.81,247.63,454.58,251.883,453.9,257.343Zm-14.316-1.474c-.487,3.932,1.2,7.718,4.944,8.182,3.768.468,6.328-2.734,6.846-6.911.454-3.658-.981-7.717-4.94-8.209C442.506,248.443,440.089,251.83,439.587,255.869Z"/><path class="z" d="M463.213,249.956a24.981,24.981,0,0,1,4.587.457c2.513.466,4.052,1.226,5,2.464a4.618,4.618,0,0,1,.793,3.728,4.869,4.869,0,0,1-4.295,4.016l-.015.081c1.315.747,1.913,2.2,2,4.174a29.644,29.644,0,0,0,.479,5.264l-2.434-.451a24.232,24.232,0,0,1-.41-4.579c-.075-2.616-.874-3.743-3-4.22l-2.218-.41-1.461,7.9-2.353-.436Zm.816,8.739,2.407.445c2.515.466,4.365-.618,4.75-2.7.435-2.353-1.077-3.7-3.56-4.183a9.757,9.757,0,0,0-2.366-.214Z"/><path class="z" d="M482.89,266.647l-3.237,5.218-2.407-.58,10.463-16.545,2.808.676,1.807,19.5-2.485-.6-.559-6.132Zm6.346-.394-.516-5.612c-.117-1.273-.127-2.407-.143-3.514l-.053-.013c-.526,1-1.084,2.03-1.7,3.043l-3.019,4.789Z"/><path class="z" d="M-4.149-2.3V-.768a.741.741,0,0,1-.223.545A.741.741,0,0,1-4.917,0H-16.434a.741.741,0,0,1-.545-.223A.741.741,0,0,1-17.2-.768V-17.363a.741.741,0,0,1,.223-.545.741.741,0,0,1,.545-.223H-14.5a.741.741,0,0,1,.545.223.741.741,0,0,1,.223.545V-3.839a.741.741,0,0,0,.223.545.741.741,0,0,0,.545.223h8.05a.741.741,0,0,1,.545.223A.741.741,0,0,1-4.149-2.3ZM.508-.669,9.1-17.833a.512.512,0,0,1,.5-.3.512.512,0,0,1,.5.3L18.688-.669a.468.468,0,0,1,.037.471.453.453,0,0,1-.433.2H16.037a1.22,1.22,0,0,1-.644-.2,1.065,1.065,0,0,1-.446-.5L14.2-2.18a1.309,1.309,0,0,0-.458-.471,1.159,1.159,0,0,0-.632-.2H6.081a1.22,1.22,0,0,0-.644.2,1.065,1.065,0,0,0-.446.5L4.273-.694a1.25,1.25,0,0,1-.458.5,1.159,1.159,0,0,1-.632.2H.929A.453.453,0,0,1,.5-.2.5.5,0,0,1,.508-.669Zm7.257-5.2h3.666a.444.444,0,0,0,.433-.211.527.527,0,0,0-.012-.483L9.92-10.65q-.124-.3-.322-.3t-.322.3L7.319-6.564a.522.522,0,0,0,0,.5A.484.484,0,0,0,7.765-5.87Z" transform="translate(400.953 191.812)"/><path class="bq" d="M303.544,249.322l-16.679,5.361a3.161,3.161,0,0,1-1.935-6.019,3.248,3.248,0,0,1,1.113-.148Z"/><path class="bq" d="M304.438,233.937a110.229,110.229,0,0,1-26.953,2.211h-.021a3.133,3.133,0,0,1,.255-6.261,3.279,3.279,0,0,1,.721.114A107.048,107.048,0,0,0,304.438,233.937Z"/><path class="bq" d="M302.209,217.991a252,252,0,0,1-36.176.979h-.007a3.123,3.123,0,1,1,.279-6.239,3.361,3.361,0,0,1,.535.07A248.9,248.9,0,0,0,302.209,217.991Z"/><path class="bq" d="M297.713,209.572a59.812,59.812,0,0,0-15.577-8.473,3.162,3.162,0,1,1,3.085-5.417l.051.043A62.969,62.969,0,0,1,297.713,209.572Z"/><path class="bq" d="M503.041,206.092a110.2,110.2,0,0,1,23.318-13.7l.019-.009a3.134,3.134,0,1,1,2.49,5.752,3.333,3.333,0,0,1-.7.21A107.058,107.058,0,0,0,503.041,206.092Z"/><path class="bq" d="M504.163,215.441a252,252,0,0,1,36.176-.979h.007a3.123,3.123,0,0,1-.279,6.239,3.356,3.356,0,0,1-.536-.07A248.864,248.864,0,0,0,504.163,215.441Z"/><path class="bq" d="M506.258,227.634a59.819,59.819,0,0,0,17.648,1.723,3.162,3.162,0,1,1-.726,6.192l-.063-.02A62.983,62.983,0,0,1,506.258,227.634Z"/><path class="bq" d="M502.21,241.731a46.918,46.918,0,0,1,14.337,6.335l.072.048a3.187,3.187,0,1,1-3.506,5.323,3.244,3.244,0,0,1-.92-.926A43.775,43.775,0,0,0,502.21,241.731Z"/><path class="br" d="M358.791,276.983a168.5,168.5,0,0,1,83.635-1.755"/><path class="z" d="M447.891,276.6a28.183,28.183,0,0,0-8.773,2.524l2.565-3.962-.563-4.685A28.2,28.2,0,0,0,447.891,276.6Z"/><path class="z" d="M-94.7,0h-3.734a1.415,1.415,0,0,1-1.04-.425,1.415,1.415,0,0,1-.425-1.04V-33.136a1.415,1.415,0,0,1,.425-1.04,1.415,1.415,0,0,1,1.04-.425h14.275a13.506,13.506,0,0,1,4.869.851,12.408,12.408,0,0,1,3.734,2.458,10.763,10.763,0,0,1,1.418,1.749,11.218,11.218,0,0,1,1.04,2.033,13.37,13.37,0,0,1,.851,4.822,11.855,11.855,0,0,1-1.938,6.854,11.016,11.016,0,0,1-3.923,3.592,1.28,1.28,0,0,0-.662.78,1.036,1.036,0,0,0,.236.969q1.749,2.363,3.333,4.467t3.285,4.467a1.122,1.122,0,0,1,.213,1.04.729.729,0,0,1-.78.52h-4.774a2.85,2.85,0,0,1-1.276-.331,3.051,3.051,0,0,1-1.04-.8q-.8-1.087-1.584-2.151t-1.584-2.151l-3.12-4.4a2.807,2.807,0,0,0-1.04-.851,2.85,2.85,0,0,0-1.276-.331h-3.64a1.415,1.415,0,0,0-1.04.425,1.415,1.415,0,0,0-.425,1.04v8.083a1.458,1.458,0,0,1-.4,1.04A1.338,1.338,0,0,1-94.7,0Zm2.883-16.875h7.658a5.2,5.2,0,0,0,1.844-.378,4.707,4.707,0,0,0,1.749-1.087,6.441,6.441,0,0,0,1.229-1.8,5.955,5.955,0,0,0,.473-2.553,9.17,9.17,0,0,0-.189-1.8,5.727,5.727,0,0,0-.284-1.016q-.189-.5-.425-.969a4.893,4.893,0,0,0-1.607-1.607,5.3,5.3,0,0,0-2.789-.662h-7.658a1.415,1.415,0,0,0-1.04.425,1.415,1.415,0,0,0-.425,1.04v8.934a1.415,1.415,0,0,0,.425,1.04A1.415,1.415,0,0,0-91.821-16.875Zm34.7,16.45a13.179,13.179,0,0,1-4.68-2.931A12.4,12.4,0,0,1-64.83-7.941a16.314,16.314,0,0,1-1.04-6V-33.089a1.415,1.415,0,0,1,.425-1.04,1.36,1.36,0,0,1,.993-.425h3.734a1.415,1.415,0,0,1,1.04.425,1.415,1.415,0,0,1,.425,1.04v19.1a9.593,9.593,0,0,0,.851,4.3A8.656,8.656,0,0,0-56.322-7a7.06,7.06,0,0,0,2.694,1.371q.756.189,1.394.284a8.243,8.243,0,0,0,1.205.095,10.85,10.85,0,0,0,2.553-.378A6.272,6.272,0,0,0-45.781-7,7.7,7.7,0,0,0-43.654-9.69a9.593,9.593,0,0,0,.851-4.3v-19.1a1.415,1.415,0,0,1,.425-1.04,1.415,1.415,0,0,1,1.04-.425h3.687a1.415,1.415,0,0,1,1.04.425,1.415,1.415,0,0,1,.425,1.04v19.144a18.264,18.264,0,0,1-.26,3.143,15.618,15.618,0,0,1-.78,2.86A13.259,13.259,0,0,1-40.2-3.356a13.765,13.765,0,0,1-4.68,2.931A16.975,16.975,0,0,1-51.028.615,16.6,16.6,0,0,1-57.125-.425ZM-3.711-4.4v2.931a1.415,1.415,0,0,1-.425,1.04A1.415,1.415,0,0,1-5.176,0h-21.98A1.415,1.415,0,0,1-28.2-.425a1.415,1.415,0,0,1-.425-1.04V-33.136a1.415,1.415,0,0,1,.425-1.04,1.415,1.415,0,0,1,1.04-.425h3.687a1.415,1.415,0,0,1,1.04.425A1.415,1.415,0,0,1-22-33.136V-7.327a1.415,1.415,0,0,0,.425,1.04,1.415,1.415,0,0,0,1.04.425H-5.176a1.415,1.415,0,0,1,1.04.425A1.415,1.415,0,0,1-3.711-4.4ZM7.067-27.275v5.72a1.415,1.415,0,0,0,.425,1.04,1.415,1.415,0,0,0,1.04.425h13.8a1.415,1.415,0,0,1,1.04.425,1.415,1.415,0,0,1,.425,1.04v3.073a1.415,1.415,0,0,1-.425,1.04,1.415,1.415,0,0,1-1.04.425H8.532a1.415,1.415,0,0,0-1.04.425,1.415,1.415,0,0,0-.425,1.04v5.2a1.415,1.415,0,0,0,.425,1.04,1.415,1.415,0,0,0,1.04.425h15.93a1.415,1.415,0,0,1,1.04.425,1.415,1.415,0,0,1,.425,1.04v3.025A1.415,1.415,0,0,1,25.5-.425,1.415,1.415,0,0,1,24.462,0H1.914A1.415,1.415,0,0,1,.874-.425a1.415,1.415,0,0,1-.425-1.04V-33.136a1.415,1.415,0,0,1,.425-1.04,1.415,1.415,0,0,1,1.04-.425H24.462a1.415,1.415,0,0,1,1.04.425,1.415,1.415,0,0,1,.425,1.04v2.931a1.415,1.415,0,0,1-.425,1.04,1.415,1.415,0,0,1-1.04.425H8.532a1.415,1.415,0,0,0-1.04.425A1.415,1.415,0,0,0,7.067-27.275ZM54.147-28.74H47.2a1.415,1.415,0,0,0-1.04.425,1.415,1.415,0,0,0-.425,1.04V-1.465a1.415,1.415,0,0,1-.425,1.04A1.415,1.415,0,0,1,44.268,0H40.581a1.415,1.415,0,0,1-1.04-.425,1.415,1.415,0,0,1-.425-1.04V-27.275a1.415,1.415,0,0,0-.425-1.04,1.415,1.415,0,0,0-1.04-.425h-7a1.415,1.415,0,0,1-1.04-.425,1.415,1.415,0,0,1-.425-1.04v-2.931a1.415,1.415,0,0,1,.425-1.04,1.415,1.415,0,0,1,1.04-.425H54.147a1.415,1.415,0,0,1,1.04.425,1.415,1.415,0,0,1,.425,1.04v2.931a1.415,1.415,0,0,1-.425,1.04A1.415,1.415,0,0,1,54.147-28.74ZM51.878-1.276l16.4-32.758a.977.977,0,0,1,.945-.567.977.977,0,0,1,.945.567l16.4,32.758a.892.892,0,0,1,.071.9A.864.864,0,0,1,85.818,0h-4.3a2.328,2.328,0,0,1-1.229-.378,2.032,2.032,0,0,1-.851-.945L78.019-4.16a2.5,2.5,0,0,0-.874-.9,2.212,2.212,0,0,0-1.205-.378H62.514a2.328,2.328,0,0,0-1.229.378,2.032,2.032,0,0,0-.851.945L59.063-1.324a2.385,2.385,0,0,1-.874.945A2.212,2.212,0,0,1,56.984,0h-4.3a.864.864,0,0,1-.827-.378A.956.956,0,0,1,51.878-1.276ZM65.728-11.2h7a.848.848,0,0,0,.827-.4,1,1,0,0,0-.024-.922l-3.687-7.8q-.236-.567-.615-.567t-.615.567l-3.734,7.8a1,1,0,0,0,0,.945A.923.923,0,0,0,65.728-11.2Z" transform="translate(411.351 235.695)"/></g></g></svg>