<svg xmlns="http://www.w3.org/2000/svg" width="247.021" height="111.095" viewBox="0 0 247.021 111.095"><defs><style>.a{fill:#1f140f;}.b{fill:#df371a;}.c{fill:#ffea00;}.d,.h,.i{fill:#fff;}.e{fill:#f6c500;}.f{fill:#6fb136;}.g{fill:#489baf;}.h,.i{font-size:20px;}.h{font-family:GothamRounded-Book, Gotham Rounded;}.i{font-family:GothamRounded-Bold, Gotham Rounded;font-weight:700;}.j{letter-spacing:-0.024em;}</style></defs><g transform="translate(319.249 -966.061)"><g transform="translate(-207.725 966.061)"><path class="a" d="M-117.95,1021.591a55.545,55.545,0,0,1-55.529,55.565,55.546,55.546,0,0,1-55.565-55.529,55.548,55.548,0,0,1,55.529-55.566,55.549,55.549,0,0,1,55.565,55.53" transform="translate(253.448 -966.061)"/><path class="b" d="M-193.523,989.2a6.006,6.006,0,0,1-6.106,5.9,6,6,0,0,1-6.109-5.891,6,6,0,0,1,6.106-5.893,6,6,0,0,1,6.109,5.889" transform="translate(265.261 -957.318)"/><path class="c" d="M-127.263,1021.437a33.88,33.88,0,0,1-.246-4.067l-.006-16.342a7.413,7.413,0,0,0-1.319-4.6,9.183,9.183,0,0,0-3.41-2.694,15.772,15.772,0,0,0-4.6-1.3,38.136,38.136,0,0,0-5-.338,27.065,27.065,0,0,0-5.375.533,15.326,15.326,0,0,0-4.833,1.725,10.607,10.607,0,0,0-2.734,2.208l1.267-3.612h-8.9l-6.876,21.46h-.105l-6.889-21.455-25.87.008-6.862,21.461h-.125l-6.885-21.455-9.392,0,11.169,31.416,9.965,0,10.328-29.448.009,29.46,8.961,0L-185,994.9l10.491,29.473,9.957,0,7.635-21.75,8.713,0a4.9,4.9,0,0,1,1.759-3.642,7.1,7.1,0,0,1,4.18-1.087,16.4,16.4,0,0,1,2.233.145,5.366,5.366,0,0,1,1.84.607,3.381,3.381,0,0,1,1.246,1.269,4.405,4.405,0,0,1,.481,2.224,2.3,2.3,0,0,1-.809,2.04,6.4,6.4,0,0,1-2.406,1.071,32.137,32.137,0,0,1-3.478.55c-1.316.121-2.622.273-3.968.479a34.563,34.563,0,0,0-4.019.823,11.2,11.2,0,0,0-3.529,1.552,7.764,7.764,0,0,0-2.523,2.761,8.886,8.886,0,0,0-.981,4.4,9.66,9.66,0,0,0,.853,4.188,8.049,8.049,0,0,0,2.375,2.92,10.163,10.163,0,0,0,3.537,1.692,16.848,16.848,0,0,0,4.364.546,21.009,21.009,0,0,0,5.927-.853,11.781,11.781,0,0,0,5.057-2.967,11.884,11.884,0,0,0,.223,1.533,5.4,5.4,0,0,0,.662,1.6l8.808-.1a7.32,7.32,0,0,1-.886-2.932m-9.2-9.22a16.718,16.718,0,0,1-.161,1.938,6.368,6.368,0,0,1-.848,2.41,5.7,5.7,0,0,1-2.153,2.027,8.17,8.17,0,0,1-4.1.866,11.383,11.383,0,0,1-2.087-.185,5.516,5.516,0,0,1-1.769-.643,3.308,3.308,0,0,1-1.21-1.251,3.889,3.889,0,0,1-.439-1.935,4.1,4.1,0,0,1,.439-2.012,4.1,4.1,0,0,1,1.16-1.3,6.493,6.493,0,0,1,1.719-.821,16.207,16.207,0,0,1,1.986-.482c.711-.134,1.439-.229,2.165-.321.7-.065,1.389-.17,2.055-.3a13.716,13.716,0,0,0,1.808-.452,4.112,4.112,0,0,0,1.429-.758Z" transform="translate(255.282 -952.866)"/><path class="d" d="M-220.233,1020.966v-.017a2.976,2.976,0,0,1,3.051-3.027,3.019,3.019,0,0,1,2.309.9l-.818.943a2.159,2.159,0,0,0-1.5-.658,1.732,1.732,0,0,0-1.7,1.823v.017a1.74,1.74,0,0,0,1.7,1.838,2.117,2.117,0,0,0,1.539-.686l.82.827a2.991,2.991,0,0,1-2.4,1.046,2.955,2.955,0,0,1-3-3.009" transform="translate(257.914 -939.773)"/><path class="d" d="M-216.245,1017.988l4.415,0v1.146l-3.135,0v1.186h2.76v1.144l-2.76,0v1.23l3.177,0v1.146l-4.457,0Z" transform="translate(259.936 -939.741)"/><path class="d" d="M-212.806,1017.987h1.188l2.743,3.6,0-3.6h1.272l0,5.853h-1.1l-2.836-3.721v3.721h-1.27Z" transform="translate(261.679 -939.741)"/><path class="d" d="M-207.2,1019.173h-1.782v-1.186l4.851,0,0,1.189h-1.783v4.666h-1.287Z" transform="translate(263.619 -939.742)"/><path class="d" d="M-205.383,1017.984h2.676a2.323,2.323,0,0,1,1.706.594,1.835,1.835,0,0,1,.5,1.337v.017a1.82,1.82,0,0,1-1.254,1.816l1.43,2.089-1.505,0-1.254-1.873h-1.013v1.873h-1.288Zm2.593,2.842c.627,0,.987-.335.987-.827v-.018c0-.55-.384-.835-1.013-.835h-1.278v1.68Z" transform="translate(265.441 -939.742)"/><path class="d" d="M-201.821,1020.96v-.017a3.026,3.026,0,0,1,3.119-3.027,3,3,0,0,1,3.1,3.009v.016a3.027,3.027,0,0,1-3.119,3.027,3,3,0,0,1-3.1-3.009m4.876,0v-.017a1.781,1.781,0,0,0-1.775-1.838,1.75,1.75,0,0,0-1.756,1.823v.016a1.781,1.781,0,0,0,1.775,1.839,1.75,1.75,0,0,0,1.755-1.823" transform="translate(267.247 -939.776)"/><path class="d" d="M-196,1020.958v-.017a2.976,2.976,0,0,1,3.051-3.027,3.015,3.015,0,0,1,2.307.9l-.82.945a2.154,2.154,0,0,0-1.495-.66,1.733,1.733,0,0,0-1.7,1.825v.015a1.738,1.738,0,0,0,1.7,1.838,2.105,2.105,0,0,0,1.537-.686l.821.827a2.99,2.99,0,0,1-2.4,1.046,2.953,2.953,0,0,1-3-3.009" transform="translate(270.2 -939.777)"/><path class="d" d="M-192.291,1020.957v-.016a3.03,3.03,0,0,1,3.119-3.029,3,3,0,0,1,3.1,3.011v.017a3.025,3.025,0,0,1-3.116,3.027,3,3,0,0,1-3.106-3.009m4.876,0v-.017a1.779,1.779,0,0,0-1.772-1.84,1.752,1.752,0,0,0-1.757,1.823v.018a1.776,1.776,0,0,0,1.774,1.838,1.751,1.751,0,0,0,1.756-1.823" transform="translate(272.078 -939.778)"/><path class="d" d="M-187.681,1017.979h1.389l1.54,2.474,1.536-2.475h1.389l0,5.853h-1.28l0-3.82-1.646,2.5h-.034l-1.63-2.475v3.8h-1.262Z" transform="translate(274.414 -939.745)"/><path class="d" d="M-183.143,1017.978h4.415v1.146h-3.135v1.188h2.76v1.144l-2.76,0v1.23h3.177l0,1.146-4.457,0Z" transform="translate(276.714 -939.746)"/><path class="d" d="M-179.7,1017.975h2.676a2.332,2.332,0,0,1,1.7.594,1.837,1.837,0,0,1,.5,1.338v.016a1.815,1.815,0,0,1-1.254,1.814l1.432,2.092h-1.505l-1.255-1.875h-1.013v1.873l-1.287,0Zm2.592,2.844c.627,0,.987-.334.987-.829v-.015c0-.553-.384-.838-1.011-.838l-1.281,0v1.68Z" transform="translate(278.458 -939.747)"/><path class="d" d="M-176.142,1020.952v-.016a2.977,2.977,0,0,1,3.051-3.029,3.019,3.019,0,0,1,2.309.9l-.82.945a2.158,2.158,0,0,0-1.5-.659,1.733,1.733,0,0,0-1.7,1.823v.017a1.739,1.739,0,0,0,1.7,1.84,2.116,2.116,0,0,0,1.539-.687l.821.827a3,3,0,0,1-2.4,1.046,2.955,2.955,0,0,1-3-3.009" transform="translate(280.263 -939.781)"/><rect class="d" width="1.287" height="5.853" transform="translate(110.19 78.226)"/><path class="d" d="M-168.393,1017.944h1.189l2.509,5.9h-1.346l-.536-1.314-2.476,0-.535,1.314H-170.9Zm1.356,3.446-.779-1.9-.778,1.9Z" transform="translate(282.921 -939.762)"/><path class="d" d="M-166.462,1017.971h1.287l0,4.683,2.917,0,0,1.171h-4.206Z" transform="translate(285.17 -939.748)"/><path class="e" d="M-233.023,987.3a6,6,0,0,1-6.1,5.893,6,6,0,0,1-6.109-5.889,6,6,0,0,1,6.1-5.893,6,6,0,0,1,6.109,5.889" transform="translate(245.241 -958.28)"/><path class="f" d="M-233.023,999.03a6,6,0,0,1-6.1,5.895,6,6,0,0,1-6.109-5.892,6,6,0,0,1,6.1-5.893,6,6,0,0,1,6.109,5.89" transform="translate(245.241 -952.335)"/><path class="g" d="M-233.023,1010.76a6,6,0,0,1-6.1,5.893,6,6,0,0,1-6.109-5.89,6,6,0,0,1,6.1-5.893,6,6,0,0,1,6.109,5.89" transform="translate(245.241 -946.389)"/><path class="b" d="M-233.026,1022.489a6,6,0,0,1-6.1,5.895,6,6,0,0,1-6.109-5.89,6,6,0,0,1,6.1-5.893,6,6,0,0,1,6.109,5.889" transform="translate(245.239 -940.443)"/></g><g transform="translate(-319.249 987.727)"><text class="h" transform="translate(12.613 16)"><tspan x="0" y="0">Un</tspan></text><text class="i" transform="translate(47.243 16)"><tspan x="0" y="0">lugar</tspan></text><text class="h" transform="translate(0 40.81)"><tspan x="0" y="0">pa</tspan><tspan class="j" y="0">r</tspan><tspan y="0">a cada</tspan></text><text class="i" transform="translate(10.503 65.62)"><tspan x="0" y="0">emoción</tspan></text></g></g></svg>