<svg xmlns="http://www.w3.org/2000/svg" width="93.131" height="28.594" viewBox="0 0 93.131 28.594"><defs><style>.a{fill:#80878c;}.b{fill:#434343;}.c{fill:#10ea19;}</style></defs><g transform="translate(-71.721 -131.684)"><path class="a" d="M76.972,155.523a3.024,3.024,0,0,0,.953,2.441,5.225,5.225,0,0,0,3.242.857v1.457q-3.122,0-4.443-1.2a4.759,4.759,0,0,1-1.321-3.7v-5.4q0-3.281-3.682-3.346v-1.281a4.242,4.242,0,0,0,2.818-.816,3.041,3.041,0,0,0,.864-2.37v-5.6q0-4.787,5.763-4.883v1.441a5.2,5.2,0,0,0-3.2.928,3.124,3.124,0,0,0-.993,2.513v4.883a5.525,5.525,0,0,1-.7,3.106,3.506,3.506,0,0,1-2.273,1.361v.128a3.483,3.483,0,0,1,2.265,1.337,5.194,5.194,0,0,1,.712,2.986Z" transform="translate(0 0)"/><path class="b" d="M169.387,174.214a5.1,5.1,0,0,1-4.273-1.985,10.875,10.875,0,0,1,.02-11.173,5.145,5.145,0,0,1,4.307-2,5.045,5.045,0,0,1,4.392,2.13h.159a18.61,18.61,0,0,1-.225-2.487v-5.332h3.122V173.95h-2.434l-.542-1.918h-.146A4.971,4.971,0,0,1,169.387,174.214Zm.834-2.514a3.383,3.383,0,0,0,2.792-1.078,5.677,5.677,0,0,0,.9-3.5v-.437a6.559,6.559,0,0,0-.9-3.929,3.338,3.338,0,0,0-2.818-1.164,2.859,2.859,0,0,0-2.527,1.33,6.813,6.813,0,0,0-.886,3.791,6.643,6.643,0,0,0,.86,3.711A2.9,2.9,0,0,0,170.221,171.7Z" transform="translate(-79.91 -18.859)"/><path class="b" d="M300.633,212.264a7.078,7.078,0,0,1-5.338-1.991,7.559,7.559,0,0,1-1.925-5.484,8.294,8.294,0,0,1,1.786-5.636,6.17,6.17,0,0,1,4.908-2.051,6.03,6.03,0,0,1,4.578,1.76,6.724,6.724,0,0,1,1.68,4.842v1.68h-9.751a4.806,4.806,0,0,0,1.151,3.275,4.009,4.009,0,0,0,3.056,1.144,11.281,11.281,0,0,0,2.415-.245,12.664,12.664,0,0,0,2.4-.814v2.527a9.535,9.535,0,0,1-2.3.767A14.122,14.122,0,0,1,300.633,212.264Zm-.569-12.807a3.124,3.124,0,0,0-2.375.939,4.477,4.477,0,0,0-1.065,2.739h6.642a4.051,4.051,0,0,0-.873-2.745A2.986,2.986,0,0,0,300.064,199.457Z" transform="translate(-192.819 -56.909)"/><path class="b" d="M408.576,213.769l-5.557-14.633H406.3l2.977,8.507a16.854,16.854,0,0,1,.926,3.466h.106a23.252,23.252,0,0,1,.926-3.466l2.977-8.507h3.308l-5.583,14.633Z" transform="translate(-288.206 -58.678)"/><path class="c" d="M534.135,182.268V162.925H537.3v19.343Z" transform="translate(-402.267 -27.177)"/><path class="c" d="M610.516,168.773a5.64,5.64,0,0,1-1.985,4.644,8.743,8.743,0,0,1-5.649,1.614h-2.011v7.237h-3.162V162.925h5.57a8.427,8.427,0,0,1,5.431,1.482A5.319,5.319,0,0,1,610.516,168.773Zm-9.645,3.6h1.68a6.021,6.021,0,0,0,3.572-.847,3.082,3.082,0,0,0,1.138-2.646,3,3,0,0,0-1.019-2.487,5.032,5.032,0,0,0-3.175-.82h-2.2Z" transform="translate(-457.572 -27.177)"/><path class="a" d="M719.295,150.368a5.19,5.19,0,0,1,.713-2.986,3.481,3.481,0,0,1,2.265-1.337v-.128a3.466,3.466,0,0,1-2.265-1.345,5.506,5.506,0,0,1-.713-3.122v-4.883a3.142,3.142,0,0,0-.985-2.506,5.152,5.152,0,0,0-3.21-.936v-1.441a6.513,6.513,0,0,1,4.275,1.241,4.471,4.471,0,0,1,1.489,3.642v5.6a3.021,3.021,0,0,0,.873,2.378,4.278,4.278,0,0,0,2.81.808v1.281q-3.683.064-3.682,3.346v5.4a4.765,4.765,0,0,1-1.321,3.69q-1.321,1.209-4.443,1.209v-1.457a5.179,5.179,0,0,0,3.226-.841,3.019,3.019,0,0,0,.969-2.457Z" transform="translate(-559.694 0)"/></g></svg>