<svg xmlns="http://www.w3.org/2000/svg" xmlns:xlink="http://www.w3.org/1999/xlink" width="454.465" height="372.267" viewBox="0 0 454.465 372.267"><defs><style>.a{fill:#d66382;mix-blend-mode:multiply;}.a,.d,.f{isolation:isolate;}.b{fill:#ff5c2c;}.c{fill:url(#a);}.d,.f{mix-blend-mode:screen;}.d{fill:url(#b);}.e{fill:#fff;}.f{fill:url(#c);}.g{fill:url(#d);}.h{fill:url(#e);}.i{fill:url(#f);}.j{fill:url(#g);}.k{fill:url(#h);}.l{fill:url(#i);}.m{fill:url(#j);}.n{fill:url(#k);}.o{fill:url(#l);}.p{fill:url(#m);}.q{fill:url(#n);}.r{fill:url(#o);}.s{fill:url(#p);}.t{fill:url(#r);}</style><radialGradient id="a" cx="0.594" cy="0.334" r="0.638" gradientTransform="matrix(1.124, -0.056, 0.072, 1.143, -0.111, -0.025)" gradientUnits="objectBoundingBox"><stop offset="0" stop-color="#ffbd0c"/><stop offset="0.771" stop-color="#ff9036"/><stop offset="0.98" stop-color="#ffb890"/></radialGradient><linearGradient id="b" x1="0.5" y1="1" x2="0.5" gradientUnits="objectBoundingBox"><stop offset="0"/><stop offset="0.123" stop-color="#040302"/><stop offset="0.267" stop-color="#130e07"/><stop offset="0.423" stop-color="#2a1f11"/><stop offset="0.586" stop-color="#4c381e"/><stop offset="0.755" stop-color="#765830"/><stop offset="0.927" stop-color="#a97e45"/><stop offset="1" stop-color="#c2904f"/></linearGradient><linearGradient id="c" x1="0.647" y1="0" x2="0.418" y2="0.807" xlink:href="#b"/><linearGradient id="d" x1="-2.971" y1="-0.04" x2="-2.963" y2="-0.98" gradientUnits="objectBoundingBox"><stop offset="0" stop-color="#9a0065"/><stop offset="1" stop-color="#cc1a6d"/></linearGradient><radialGradient id="e" cx="0.661" cy="0.467" r="0.469" gradientTransform="translate(-0.073) scale(1.146 1)" gradientUnits="objectBoundingBox"><stop offset="0" stop-color="#ffff8e"/><stop offset="1" stop-color="#ffbd36"/></radialGradient><linearGradient id="f" x1="-2.874" y1="-0.032" x2="-2.866" y2="-0.972" xlink:href="#d"/><radialGradient id="g" cx="0.661" cy="0.467" r="0.486" gradientTransform="translate(0)" gradientUnits="objectBoundingBox"><stop offset="0" stop-color="#ffff8e"/><stop offset="1" stop-color="#ffbd9a"/></radialGradient><linearGradient id="h" x1="-0.396" y1="1.052" x2="-0.388" y2="0.112" xlink:href="#d"/><radialGradient id="i" cx="0.661" cy="0.467" r="0.486" gradientTransform="matrix(1, 0, 0, 1, 0, 0)" xlink:href="#g"/><linearGradient id="j" x1="-4.998" y1="0.796" x2="-4.99" y2="-0.144" xlink:href="#d"/><radialGradient id="k" cx="0.661" cy="0.467" r="0.486" gradientTransform="matrix(1, 0, 0, 1, 0, 0)" xlink:href="#g"/><linearGradient id="l" x1="-4.324" y1="1.578" x2="-4.316" y2="0.638" xlink:href="#d"/><radialGradient id="m" cx="0.661" cy="0.467" r="0.486" gradientTransform="matrix(1, 0, 0, 1, 0, 0)" xlink:href="#g"/><linearGradient id="n" x1="-0.846" y1="1.769" x2="-0.839" y2="0.829" xlink:href="#d"/><radialGradient id="o" cx="0.661" cy="0.467" r="0.486" xlink:href="#g"/><linearGradient id="p" x1="-1.319" y1="0.298" x2="-1.311" y2="-0.642" xlink:href="#d"/><linearGradient id="r" x1="-4.284" y1="0.133" x2="-4.276" y2="-0.807" xlink:href="#d"/></defs><ellipse class="a" cx="29.123" cy="32.242" rx="29.123" ry="32.242" transform="translate(192.51 126.165) rotate(-3.212)"/><ellipse class="b" cx="25.756" cy="28.346" rx="25.756" ry="28.346" transform="matrix(0.998, -0.056, 0.056, 0.998, 197.087, 124.196)"/><path class="c" d="M258.6,193.017c.858,15.256-9.425,28.239-22.966,29s-25.212-10.991-26.068-26.246,9.427-28.239,22.966-29S257.743,177.762,258.6,193.017Z" transform="translate(-8.492 -43.407)"/><path class="d" d="M212.106,177.94s19.587,14.01,40.3,8.659c0,0-3.387-16.2-16.432-18.464A23.521,23.521,0,0,0,212.106,177.94Z" transform="translate(-5.072 -42.086)"/><path class="e" d="M223.666,169.424a12.62,12.62,0,0,0,4.418,7.914c4.176,3.736,8.051,3.684,8.051,3.684S233.249,171.512,223.666,169.424Z" transform="translate(10.19 -39.858)"/><path class="f" d="M212.106,185.667s11.021-3.534,18.348-.016,4.538,12.058,4.538,12.058S218.064,198.482,212.106,185.667Z" transform="translate(-5.072 -20.493)"/><g transform="translate(228.85 356.301)"><g transform="translate(0.059)"><path class="g" d="M221.566,272.556a6.193,6.193,0,0,0,5.121,6.856,5.749,5.749,0,0,0,6.33-5.364,6.193,6.193,0,0,0-5.121-6.856A5.745,5.745,0,0,0,221.566,272.556Z" transform="translate(-221.534 -267.145)"/></g><g transform="translate(0 0.772)"><path class="h" d="M221.54,272.249c-.3,2.954,1.552,5.624,4.13,5.963s4.9-1.782,5.2-4.736-1.555-5.624-4.132-5.963S221.834,269.3,221.54,272.249Z" transform="translate(-221.509 -267.478)"/></g></g><g transform="translate(219.974 349.902)"><g transform="translate(0 5.922)"><path class="i" d="M217.715,272.349a6.193,6.193,0,0,0,5.121,6.856,5.747,5.747,0,0,0,6.332-5.364,6.2,6.2,0,0,0-5.121-6.856A5.75,5.75,0,0,0,217.715,272.349Z" transform="translate(-217.683 -266.939)"/></g><path class="j" d="M240.93,275.568a11.181,11.181,0,1,1-11.181-11.181A11.183,11.183,0,0,1,240.93,275.568Z" transform="translate(-216.515 -264.387)"/></g><g transform="translate(0 153.994)"><g transform="translate(0 5.921)"><path class="k" d="M122.908,187.914a6.192,6.192,0,0,0,5.121,6.856,5.745,5.745,0,0,0,6.33-5.364,6.193,6.193,0,0,0-5.121-6.856A5.748,5.748,0,0,0,122.908,187.914Z" transform="translate(-122.876 -182.504)"/></g><ellipse class="l" cx="11.181" cy="11.181" rx="11.181" ry="11.181" transform="translate(2.052)"/></g><g transform="translate(430.05 153.993)"><g transform="translate(0 5.922)"><path class="m" d="M308.256,187.914a6.192,6.192,0,0,0,5.121,6.856,5.745,5.745,0,0,0,6.33-5.364,6.193,6.193,0,0,0-5.121-6.856A5.749,5.749,0,0,0,308.256,187.914Z" transform="translate(-308.224 -182.504)"/></g><path class="n" d="M331.473,191.133a11.182,11.182,0,1,1-11.181-11.181A11.183,11.183,0,0,1,331.473,191.133Z" transform="translate(-307.057 -179.952)"/></g><g transform="translate(376.267)"><g transform="translate(0 5.921)"><path class="o" d="M285.076,121.545a6.189,6.189,0,0,0,5.118,6.854,5.747,5.747,0,0,0,6.332-5.362,6.19,6.19,0,0,0-5.121-6.856A5.745,5.745,0,0,0,285.076,121.545Z" transform="translate(-285.044 -116.134)"/></g><path class="p" d="M308.29,124.763a11.181,11.181,0,1,1-11.181-11.181A11.181,11.181,0,0,1,308.29,124.763Z" transform="translate(-283.877 -113.582)"/></g><g transform="translate(51.2 0.522)"><g transform="translate(0 5.922)"><path class="q" d="M144.975,121.769a6.193,6.193,0,0,0,5.121,6.856,5.746,5.746,0,0,0,6.33-5.364,6.193,6.193,0,0,0-5.121-6.856A5.748,5.748,0,0,0,144.975,121.769Z" transform="translate(-144.943 -116.359)"/></g><path class="r" d="M168.189,124.988a11.181,11.181,0,1,1-11.181-11.181A11.182,11.182,0,0,1,168.189,124.988Z" transform="translate(-143.776 -113.807)"/></g><g transform="translate(77.561 299.544)"><g transform="translate(0 5.921)"><path class="s" d="M156.336,250.646a6.193,6.193,0,0,0,5.121,6.856,5.748,5.748,0,0,0,6.33-5.364,6.193,6.193,0,0,0-5.121-6.856A5.745,5.745,0,0,0,156.336,250.646Z" transform="translate(-156.304 -245.235)"/></g><path class="l" d="M179.55,253.864a11.181,11.181,0,1,1-11.181-11.181A11.181,11.181,0,0,1,179.55,253.864Z" transform="translate(-155.137 -242.683)"/></g><g transform="translate(354.758 299.544)"><g transform="translate(0 5.921)"><path class="t" d="M275.806,250.646a6.193,6.193,0,0,0,5.121,6.856,5.75,5.75,0,0,0,6.332-5.364,6.2,6.2,0,0,0-5.121-6.856A5.747,5.747,0,0,0,275.806,250.646Z" transform="translate(-275.774 -245.235)"/></g><path class="l" d="M299.021,253.864a11.181,11.181,0,1,1-11.181-11.181A11.183,11.183,0,0,1,299.021,253.864Z" transform="translate(-274.606 -242.683)"/></g></svg>