<svg xmlns="http://www.w3.org/2000/svg" xmlns:xlink="http://www.w3.org/1999/xlink" width="689.259" height="564.594" viewBox="0 0 689.259 564.594"><defs><style>.a{fill:#d66382;mix-blend-mode:multiply;}.a,.d,.f{isolation:isolate;}.b{fill:#ff5c2c;}.c{fill:url(#a);}.d,.f{mix-blend-mode:screen;}.d{fill:url(#b);}.e{fill:#fff;}.f{fill:url(#c);}.g{fill:url(#d);}.h{fill:url(#e);}.i{fill:url(#f);}.j{fill:url(#g);}.k{fill:url(#h);}.l{fill:url(#i);}.m{fill:url(#j);}.n{fill:url(#k);}.o{fill:url(#l);}.p{fill:url(#m);}.q{fill:url(#n);}.r{fill:url(#o);}.s{fill:url(#p);}.t{fill:url(#r);}</style><radialGradient id="a" cx="0.594" cy="0.334" r="0.638" gradientTransform="matrix(1.124, -0.056, 0.072, 1.143, -0.111, -0.025)" gradientUnits="objectBoundingBox"><stop offset="0" stop-color="#ffbd0c"/><stop offset="0.771" stop-color="#ff9036"/><stop offset="0.98" stop-color="#ffb890"/></radialGradient><linearGradient id="b" x1="0.5" y1="1" x2="0.5" gradientUnits="objectBoundingBox"><stop offset="0"/><stop offset="0.123" stop-color="#040302"/><stop offset="0.267" stop-color="#130e07"/><stop offset="0.423" stop-color="#2a1f11"/><stop offset="0.586" stop-color="#4c381e"/><stop offset="0.755" stop-color="#765830"/><stop offset="0.927" stop-color="#a97e45"/><stop offset="1" stop-color="#c2904f"/></linearGradient><linearGradient id="c" x1="0.647" y1="0" x2="0.418" y2="0.807" xlink:href="#b"/><linearGradient id="d" x1="-2.971" y1="-0.04" x2="-2.963" y2="-0.98" gradientUnits="objectBoundingBox"><stop offset="0" stop-color="#9a0065"/><stop offset="1" stop-color="#cc1a6d"/></linearGradient><radialGradient id="e" cx="0.661" cy="0.467" r="0.469" gradientTransform="translate(-0.073) scale(1.146 1)" gradientUnits="objectBoundingBox"><stop offset="0" stop-color="#ffff8e"/><stop offset="1" stop-color="#ffbd36"/></radialGradient><linearGradient id="f" x1="-2.874" y1="-0.032" x2="-2.866" y2="-0.972" xlink:href="#d"/><radialGradient id="g" cx="0.661" cy="0.467" r="0.486" gradientTransform="translate(0)" gradientUnits="objectBoundingBox"><stop offset="0" stop-color="#ffff8e"/><stop offset="1" stop-color="#ffbd9a"/></radialGradient><linearGradient id="h" x1="-0.396" y1="1.052" x2="-0.388" y2="0.112" xlink:href="#d"/><radialGradient id="i" cx="0.661" cy="0.467" r="0.486" gradientTransform="matrix(1, 0, 0, 1, 0, 0)" xlink:href="#g"/><linearGradient id="j" x1="-4.998" y1="0.796" x2="-4.99" y2="-0.144" xlink:href="#d"/><radialGradient id="k" cx="0.661" cy="0.467" r="0.486" gradientTransform="matrix(1, 0, 0, 1, 0, 0)" xlink:href="#g"/><linearGradient id="l" x1="-4.324" y1="1.578" x2="-4.316" y2="0.638" xlink:href="#d"/><radialGradient id="m" cx="0.661" cy="0.467" r="0.486" gradientTransform="matrix(1, 0, 0, 1, 0, 0)" xlink:href="#g"/><linearGradient id="n" x1="-0.846" y1="1.769" x2="-0.839" y2="0.829" xlink:href="#d"/><radialGradient id="o" cx="0.661" cy="0.467" r="0.486" xlink:href="#g"/><linearGradient id="p" x1="-1.319" y1="0.298" x2="-1.311" y2="-0.642" xlink:href="#d"/><linearGradient id="r" x1="-4.284" y1="0.133" x2="-4.276" y2="-0.807" xlink:href="#d"/></defs><ellipse class="a" cx="44.169" cy="48.9" rx="44.169" ry="48.9" transform="translate(291.967 191.347) rotate(-3.212)"/><ellipse class="b" cx="39.063" cy="42.991" rx="39.063" ry="42.991" transform="matrix(0.998, -0.056, 0.056, 0.998, 298.909, 188.361)"/><path class="c" d="M283.957,206.6c1.3,23.137-14.294,42.829-34.831,43.98s-38.237-16.669-39.535-39.806,14.3-42.829,34.831-43.98S282.658,183.458,283.957,206.6Z" transform="translate(95.364 20.31)"/><path class="d" d="M212.106,183.212s29.707,21.247,61.117,13.133c0,0-5.138-24.562-24.921-28A35.672,35.672,0,0,0,212.106,183.212Z" transform="translate(101.889 22.829)"/><path class="e" d="M223.666,169.424s.366,6.334,6.7,12,12.211,5.588,12.211,5.588S238.2,172.591,223.666,169.424Z" transform="translate(131.008 27.081)"/><path class="f" d="M212.106,186.481s16.715-5.359,27.828-.025,6.883,18.288,6.883,18.288S221.143,205.916,212.106,186.481Z" transform="translate(101.889 64.029)"/><g transform="translate(347.082 540.38)"><g transform="translate(0.09)"><path class="g" d="M221.583,275.351c-.507,5.117,2.97,9.772,7.766,10.4s9.093-3.019,9.6-8.136-2.97-9.772-7.766-10.4S222.09,270.231,221.583,275.351Z" transform="translate(-221.534 -267.145)"/></g><g transform="translate(0 1.17)"><path class="h" d="M221.556,274.714c-.45,4.48,2.354,8.53,6.264,9.044s7.439-2.7,7.89-7.182-2.358-8.53-6.267-9.044S222,270.234,221.556,274.714Z" transform="translate(-221.509 -267.478)"/></g></g><g transform="translate(333.621 530.674)"><g transform="translate(0 8.981)"><path class="i" d="M217.732,275.144c-.507,5.117,2.97,9.772,7.766,10.4s9.1-3.016,9.6-8.136-2.974-9.772-7.766-10.4S218.239,270.028,217.732,275.144Z" transform="translate(-217.683 -266.939)"/></g><path class="j" d="M252.484,281.345a16.958,16.958,0,1,1-16.958-16.958A16.961,16.961,0,0,1,252.484,281.345Z" transform="translate(-215.454 -264.387)"/></g><g transform="translate(0 233.553)"><g transform="translate(0 8.98)"><path class="k" d="M122.925,190.709c-.507,5.12,2.97,9.772,7.766,10.4s9.093-3.016,9.6-8.136-2.97-9.772-7.766-10.4S123.432,185.593,122.925,190.709Z" transform="translate(-122.876 -182.504)"/></g><ellipse class="l" cx="16.958" cy="16.958" rx="16.958" ry="16.958" transform="translate(3.112)"/></g><g transform="translate(652.229 233.552)"><g transform="translate(0 8.981)"><path class="m" d="M308.273,190.709c-.507,5.12,2.97,9.772,7.766,10.4s9.093-3.016,9.6-8.136-2.97-9.772-7.766-10.4S308.78,185.593,308.273,190.709Z" transform="translate(-308.224 -182.504)"/></g><path class="n" d="M343.027,196.91a16.96,16.96,0,1,1-16.958-16.958A16.961,16.961,0,0,1,343.027,196.91Z" transform="translate(-305.997 -179.952)"/></g><g transform="translate(570.66)"><g transform="translate(0 8.981)"><path class="o" d="M285.093,124.34c-.507,5.117,2.97,9.772,7.763,10.395s9.1-3.016,9.6-8.132-2.97-9.776-7.766-10.4S285.6,119.22,285.093,124.34Z" transform="translate(-285.044 -116.134)"/></g><path class="p" d="M319.844,130.54a16.958,16.958,0,1,1-16.958-16.958A16.958,16.958,0,0,1,319.844,130.54Z" transform="translate(-282.818 -113.582)"/></g><g transform="translate(77.653 0.792)"><g transform="translate(0 8.981)"><path class="q" d="M144.992,124.564c-.507,5.117,2.97,9.772,7.766,10.4s9.093-3.016,9.6-8.136-2.97-9.772-7.766-10.4S145.5,119.448,144.992,124.564Z" transform="translate(-144.943 -116.359)"/></g><path class="r" d="M179.743,130.765a16.958,16.958,0,1,1-16.958-16.958A16.958,16.958,0,0,1,179.743,130.765Z" transform="translate(-142.716 -113.807)"/></g><g transform="translate(117.631 454.299)"><g transform="translate(0 8.981)"><path class="s" d="M156.353,253.441c-.507,5.117,2.97,9.772,7.766,10.4s9.093-3.019,9.6-8.136-2.97-9.772-7.766-10.4S156.86,248.321,156.353,253.441Z" transform="translate(-156.304 -245.235)"/></g><path class="l" d="M191.1,259.641a16.958,16.958,0,1,1-16.958-16.958A16.958,16.958,0,0,1,191.1,259.641Z" transform="translate(-154.077 -242.683)"/></g><g transform="translate(538.04 454.299)"><g transform="translate(0 8.981)"><path class="t" d="M275.823,253.441c-.507,5.117,2.97,9.772,7.766,10.4s9.1-3.019,9.6-8.136-2.974-9.772-7.766-10.4S276.33,248.321,275.823,253.441Z" transform="translate(-275.774 -245.235)"/></g><path class="l" d="M310.575,259.641a16.958,16.958,0,1,1-16.958-16.958A16.96,16.96,0,0,1,310.575,259.641Z" transform="translate(-273.545 -242.683)"/></g></svg>