<svg xmlns="http://www.w3.org/2000/svg" width="596.004" height="107.64" viewBox="0 0 596.004 107.64"><defs><style>.a{fill:#fff;}</style></defs><path class="a" d="M2.55-1.55A1.793,1.793,0,0,0,4.35.25,1.98,1.98,0,0,0,6.25-1.1L9.9-9.25H29.1L32.75-1.2A2.156,2.156,0,0,0,34.7.25a1.9,1.9,0,0,0,1.9-1.9,2.67,2.67,0,0,0-.25-1l-14.2-31A2.52,2.52,0,0,0,19.7-35.4h-.2A2.581,2.581,0,0,0,17-33.65L2.8-2.6A2.276,2.276,0,0,0,2.55-1.55Zm8.9-11.3,8.05-17.9,8.05,17.9ZM43.5-1.7A1.921,1.921,0,0,0,45.45.25a1.88,1.88,0,0,0,1.9-1.95V-14.8c0-4.85,3.3-8.1,7.75-8.1,4.55,0,7.15,3,7.15,7.8V-1.7A1.921,1.921,0,0,0,64.2.25,1.911,1.911,0,0,0,66.1-1.7V-16.05c0-6.15-3.65-10.35-9.9-10.35a9.789,9.789,0,0,0-8.85,5.05V-34.8a1.952,1.952,0,0,0-1.95-1.95,1.942,1.942,0,0,0-1.9,1.95ZM86.1.6A13.422,13.422,0,0,0,99.65-12.9V-13A13.285,13.285,0,0,0,86.2-26.4,13.38,13.38,0,0,0,72.7-12.9v.1A13.243,13.243,0,0,0,86.1.6Zm.1-3.45c-5.45,0-9.55-4.5-9.55-10.05V-13c0-5.45,3.85-10,9.45-10,5.45,0,9.6,4.55,9.6,10.1v.1C95.7-7.35,91.8-2.85,86.2-2.85ZM106.6-1.7A1.921,1.921,0,0,0,108.55.25a1.91,1.91,0,0,0,1.9-1.95v-8.8c0-7.45,4.1-11.2,9.1-11.8a1.911,1.911,0,0,0,1.7-1.95,1.851,1.851,0,0,0-1.9-1.95c-3.25,0-7,2.6-8.9,6.9v-4.85a1.921,1.921,0,0,0-1.95-1.95,1.942,1.942,0,0,0-1.9,1.95ZM133.3.55a11.328,11.328,0,0,0,9.35-4.45v2.35A1.774,1.774,0,0,0,144.5.25a1.827,1.827,0,0,0,1.85-1.9V-15.8c0-3.3-.9-5.8-2.65-7.55-1.9-1.9-4.7-2.85-8.35-2.85a20.384,20.384,0,0,0-8.45,1.75,1.763,1.763,0,0,0-1.05,1.6,1.709,1.709,0,0,0,1.7,1.65,1.963,1.963,0,0,0,.7-.15,16.139,16.139,0,0,1,6.7-1.45c4.85,0,7.7,2.4,7.7,7.05v.9a27.447,27.447,0,0,0-7.95-1.1c-6.55,0-11.05,2.9-11.05,8.35v.1C123.65-2.2,128.5.55,133.3.55Zm.75-3.05c-3.5,0-6.5-1.9-6.5-5.15v-.1c0-3.25,2.7-5.35,7.55-5.35a26.965,26.965,0,0,1,7.6,1.1v2.5C142.7-5.4,138.8-2.5,134.05-2.5Zm35.5,8.8a1.921,1.921,0,0,0,1.95,1.95,1.88,1.88,0,0,0,1.9-1.95V-4.95a11.662,11.662,0,0,0,9.9,5.5c6.25,0,12.35-5,12.35-13.45V-13c0-8.5-6.15-13.4-12.35-13.4-4.75,0-7.8,2.65-9.9,5.75v-3.5a1.921,1.921,0,0,0-1.95-1.95,1.911,1.911,0,0,0-1.9,1.95ZM182.6-2.9a9.621,9.621,0,0,1-9.35-10V-13a9.639,9.639,0,0,1,9.35-9.95c4.9,0,9.1,3.9,9.1,10v.1C191.7-6.6,187.6-2.9,182.6-2.9Zm20.15,1.2A1.921,1.921,0,0,0,204.7.25a1.91,1.91,0,0,0,1.9-1.95v-8.8c0-7.45,4.1-11.2,9.1-11.8a1.911,1.911,0,0,0,1.7-1.95,1.851,1.851,0,0,0-1.9-1.95c-3.25,0-7,2.6-8.9,6.9v-4.85a1.921,1.921,0,0,0-1.95-1.95,1.942,1.942,0,0,0-1.9,1.95ZM224.2-14.35c.5-5.05,3.9-8.8,8.4-8.8,5.15,0,7.85,4.1,8.25,8.8ZM242.95-3.3a1.66,1.66,0,0,0,.6-1.25,1.676,1.676,0,0,0-1.7-1.65,1.687,1.687,0,0,0-1.1.45,10.565,10.565,0,0,1-7.45,3c-4.6,0-8.55-3.15-9.1-8.75h18.7a1.792,1.792,0,0,0,1.8-1.8c0-6.85-4.35-13.1-12-13.1-7.15,0-12.4,6-12.4,13.45v.1c0,8,5.8,13.45,12.9,13.45A13.141,13.141,0,0,0,242.95-3.3ZM260.05.5c5.15,0,9.2-2.85,9.2-7.75v-.1c0-4.65-4.3-6.2-8.3-7.4-3.45-1.05-6.65-2-6.65-4.45v-.1c0-2.15,1.95-3.75,5-3.75a13.99,13.99,0,0,1,6.75,2,1.934,1.934,0,0,0,.85.2,1.676,1.676,0,0,0,1.7-1.65,1.869,1.869,0,0,0-.95-1.6,18.008,18.008,0,0,0-8.25-2.2c-5.1,0-8.8,2.95-8.8,7.4v.1c0,4.75,4.5,6.15,8.55,7.3,3.4.95,6.45,1.95,6.45,4.55v.1c0,2.5-2.25,4.1-5.35,4.1a14.523,14.523,0,0,1-8.2-2.75,1.539,1.539,0,0,0-.95-.3,1.676,1.676,0,0,0-1.7,1.65,1.739,1.739,0,0,0,.7,1.4A17.887,17.887,0,0,0,260.05.5ZM276.4-33.3a2.109,2.109,0,0,0,2.25,2.05,2.125,2.125,0,0,0,2.3-2.05v-.65a2.1,2.1,0,0,0-2.3-2.05,2.08,2.08,0,0,0-2.25,2.05Zm.35,31.6A1.921,1.921,0,0,0,278.7.25a1.88,1.88,0,0,0,1.9-1.95V-24.15a1.921,1.921,0,0,0-1.95-1.95,1.942,1.942,0,0,0-1.9,1.95ZM301.35.6A13.422,13.422,0,0,0,314.9-12.9V-13a13.285,13.285,0,0,0-13.45-13.4,13.38,13.38,0,0,0-13.5,13.5v.1A13.243,13.243,0,0,0,301.35.6Zm.1-3.45c-5.45,0-9.55-4.5-9.55-10.05V-13c0-5.45,3.85-10,9.45-10,5.45,0,9.6,4.55,9.6,10.1v.1C310.95-7.35,307.05-2.85,301.45-2.85Zm20.4,1.15A1.921,1.921,0,0,0,323.8.25a1.88,1.88,0,0,0,1.9-1.95V-14.8c0-4.85,3.3-8.1,7.75-8.1,4.55,0,7.15,3,7.15,7.8V-1.7A1.921,1.921,0,0,0,342.55.25a1.911,1.911,0,0,0,1.9-1.95V-16.05c0-6.15-3.65-10.35-9.9-10.35a9.789,9.789,0,0,0-8.85,5.05v-2.8a1.921,1.921,0,0,0-1.95-1.95,1.942,1.942,0,0,0-1.9,1.95ZM360.35.55A11.328,11.328,0,0,0,369.7-3.9v2.35a1.774,1.774,0,0,0,1.85,1.8,1.827,1.827,0,0,0,1.85-1.9V-15.8c0-3.3-.9-5.8-2.65-7.55-1.9-1.9-4.7-2.85-8.35-2.85a20.384,20.384,0,0,0-8.45,1.75,1.763,1.763,0,0,0-1.05,1.6,1.709,1.709,0,0,0,1.7,1.65,1.963,1.963,0,0,0,.7-.15A16.139,16.139,0,0,1,362-22.8c4.85,0,7.7,2.4,7.7,7.05v.9a27.448,27.448,0,0,0-7.95-1.1c-6.55,0-11.05,2.9-11.05,8.35v.1C350.7-2.2,355.55.55,360.35.55Zm.75-3.05c-3.5,0-6.5-1.9-6.5-5.15v-.1c0-3.25,2.7-5.35,7.55-5.35a26.964,26.964,0,0,1,7.6,1.1v2.5C369.75-5.4,365.85-2.5,361.1-2.5Zm37.8-11.85c.5-5.05,3.9-8.8,8.4-8.8,5.15,0,7.85,4.1,8.25,8.8ZM417.65-3.3a1.66,1.66,0,0,0,.6-1.25,1.676,1.676,0,0,0-1.7-1.65,1.687,1.687,0,0,0-1.1.45,10.565,10.565,0,0,1-7.45,3c-4.6,0-8.55-3.15-9.1-8.75h18.7a1.792,1.792,0,0,0,1.8-1.8c0-6.85-4.35-13.1-12-13.1-7.15,0-12.4,6-12.4,13.45v.1C395-4.85,400.8.6,407.9.6A13.141,13.141,0,0,0,417.65-3.3Zm8.9,1.6A1.921,1.921,0,0,0,428.5.25a1.88,1.88,0,0,0,1.9-1.95V-34.8a1.952,1.952,0,0,0-1.95-1.95,1.942,1.942,0,0,0-1.9,1.95Zm27.8,0A1.952,1.952,0,0,0,456.3.25a1.91,1.91,0,0,0,1.9-1.95V-4.95a11.662,11.662,0,0,0,9.9,5.5c6.25,0,12.35-5,12.35-13.45V-13c0-8.5-6.15-13.4-12.35-13.4-4.75,0-7.8,2.65-9.9,5.75V-34.8a1.921,1.921,0,0,0-1.95-1.95,1.911,1.911,0,0,0-1.9,1.95ZM467.4-2.9a9.621,9.621,0,0,1-9.35-10V-13a9.639,9.639,0,0,1,9.35-9.95c4.9,0,9.1,3.9,9.1,10v.1C476.5-6.6,472.4-2.9,467.4-2.9ZM499.35.6A13.422,13.422,0,0,0,512.9-12.9V-13a13.285,13.285,0,0,0-13.45-13.4,13.38,13.38,0,0,0-13.5,13.5v.1A13.243,13.243,0,0,0,499.35.6Zm.1-3.45c-5.45,0-9.55-4.5-9.55-10.05V-13c0-5.45,3.85-10,9.45-10,5.45,0,9.6,4.55,9.6,10.1v.1C508.95-7.35,505.05-2.85,499.45-2.85ZM528.5.45a9.725,9.725,0,0,0,3.8-.7,1.607,1.607,0,0,0,1.1-1.5,1.665,1.665,0,0,0-1.65-1.65,10.894,10.894,0,0,1-2.35.35c-2.6,0-4.35-1.15-4.35-4.3v-15.1h6.7a1.729,1.729,0,0,0,1.75-1.7,1.762,1.762,0,0,0-1.75-1.7h-6.7v-6.1a1.986,1.986,0,0,0-1.95-1.95,1.91,1.91,0,0,0-1.9,1.95v6.1h-2.1a1.718,1.718,0,0,0-1.7,1.7,1.752,1.752,0,0,0,1.7,1.7h2.1v15.6C521.2-1.6,524.35.45,528.5.45Zm22.55-30a2.828,2.828,0,0,0,2.35-.95l3.75-3.55a1.81,1.81,0,0,0,.7-1.15c0-.7-1.5-1.5-2.7-1.5a2.12,2.12,0,0,0-1.8,1.15l-3,4.55a1.348,1.348,0,0,0-.25.75C550.1-29.85,550.5-29.55,551.05-29.55ZM551.1.6a13.422,13.422,0,0,0,13.55-13.5V-13A13.285,13.285,0,0,0,551.2-26.4a13.38,13.38,0,0,0-13.5,13.5v.1A13.243,13.243,0,0,0,551.1.6Zm.1-3.45c-5.45,0-9.55-4.5-9.55-10.05V-13c0-5.45,3.85-10,9.45-10,5.45,0,9.6,4.55,9.6,10.1v.1C560.7-7.35,556.8-2.85,551.2-2.85ZM571.6-1.7A1.921,1.921,0,0,0,573.55.25a1.88,1.88,0,0,0,1.9-1.95V-14.8c0-4.85,3.3-8.1,7.75-8.1,4.55,0,7.15,3,7.15,7.8V-1.7A1.921,1.921,0,0,0,592.3.25a1.911,1.911,0,0,0,1.9-1.95V-16.05c0-6.15-3.65-10.35-9.9-10.35a9.789,9.789,0,0,0-8.85,5.05v-2.8a1.921,1.921,0,0,0-1.95-1.95,1.942,1.942,0,0,0-1.9,1.95ZM10.626,70.758c5.148,0,8.448-2.574,11.418-9.636L35.376,29.31a4.261,4.261,0,0,0,.264-1.254,2.507,2.507,0,0,0-2.508-2.508,2.552,2.552,0,0,0-2.442,1.914L20.13,54.324,8.25,27.528a2.692,2.692,0,0,0-2.574-1.98A2.522,2.522,0,0,0,3.1,28.056a3.547,3.547,0,0,0,.33,1.386L17.688,59.67l-.264.528c-1.848,4.158-3.7,6.072-6.864,6.072a10.49,10.49,0,0,1-3.7-.594,3.859,3.859,0,0,0-1.254-.264A2.2,2.2,0,0,0,3.432,67.59a2.319,2.319,0,0,0,1.584,2.178A16.065,16.065,0,0,0,10.626,70.758Zm53.592-2.442a2.536,2.536,0,0,0,2.574,2.574A2.482,2.482,0,0,0,69.3,68.316V53.466c2.64,3.828,6.732,7.26,13.068,7.26,8.25,0,16.3-6.6,16.3-17.754V42.84c0-11.22-8.118-17.688-16.3-17.688-6.27,0-10.3,3.5-13.068,7.59v-4.62a2.541,2.541,0,1,0-5.082,0ZM81.444,56.172c-6.336,0-12.342-5.28-12.342-13.2V42.84c0-7.788,6.006-13.134,12.342-13.134,6.468,0,12.012,5.148,12.012,13.2v.132C93.456,51.288,88.044,56.172,81.444,56.172Zm26.6,1.584a2.541,2.541,0,1,0,5.082,0V46.14c0-9.834,5.412-14.784,12.012-15.576a2.522,2.522,0,0,0,2.244-2.574,2.443,2.443,0,0,0-2.508-2.574c-4.29,0-9.24,3.432-11.748,9.108v-6.4a2.536,2.536,0,0,0-2.574-2.574,2.564,2.564,0,0,0-2.508,2.574ZM164.01,28.122a2.522,2.522,0,0,0-2.508-2.574,2.482,2.482,0,0,0-2.508,2.574V45.414c0,6.4-4.422,10.692-10.23,10.692-6.006,0-9.438-3.96-9.438-10.3V28.122a2.577,2.577,0,0,0-2.574-2.574,2.482,2.482,0,0,0-2.508,2.574V47.064c0,8.118,4.818,13.662,13.068,13.662,5.874,0,9.372-2.97,11.682-6.666v3.7a2.509,2.509,0,1,0,5.016,0Zm14.454,12.936c.66-6.666,5.148-11.616,11.088-11.616,6.8,0,10.362,5.412,10.89,11.616Zm24.75,14.586a2.159,2.159,0,0,0-1.452-3.828,2.226,2.226,0,0,0-1.452.594,13.946,13.946,0,0,1-9.834,3.96c-6.072,0-11.286-4.158-12.012-11.55h24.684a2.366,2.366,0,0,0,2.376-2.376c0-9.042-5.742-17.292-15.84-17.292-9.438,0-16.368,7.92-16.368,17.754v.132c0,10.56,7.656,17.754,17.028,17.754A17.346,17.346,0,0,0,203.214,55.644ZM214.5,57.756a2.577,2.577,0,0,0,2.574,2.574,2.521,2.521,0,0,0,2.508-2.574v-4.29c2.64,3.828,6.732,7.26,13.068,7.26,8.25,0,16.3-6.6,16.3-17.754V42.84c0-11.22-8.118-17.688-16.3-17.688-6.27,0-10.3,3.5-13.068,7.59V14.064a2.541,2.541,0,1,0-5.082,0Zm17.226-1.584c-6.336,0-12.342-5.28-12.342-13.2V42.84c0-7.788,6.006-13.134,12.342-13.134,6.468,0,12.012,5.148,12.012,13.2v.132C243.738,51.288,238.326,56.172,231.726,56.172Zm36.762,4.554a14.953,14.953,0,0,0,12.342-5.874v3.1a2.342,2.342,0,0,0,2.442,2.376,2.412,2.412,0,0,0,2.442-2.508V39.144c0-4.356-1.188-7.656-3.5-9.966-2.508-2.508-6.2-3.762-11.022-3.762a26.907,26.907,0,0,0-11.154,2.31,2.327,2.327,0,0,0-1.386,2.112,2.255,2.255,0,0,0,2.244,2.178,2.591,2.591,0,0,0,.924-.2,21.3,21.3,0,0,1,8.844-1.914c6.4,0,10.164,3.168,10.164,9.306V40.4a36.23,36.23,0,0,0-10.494-1.452c-8.646,0-14.586,3.828-14.586,11.022V50.1C255.75,57.1,262.152,60.726,268.488,60.726Zm.99-4.026c-4.62,0-8.58-2.508-8.58-6.8V49.77c0-4.29,3.564-7.062,9.966-7.062A35.593,35.593,0,0,1,280.9,44.16v3.3C280.9,52.872,275.748,56.7,269.478,56.7Zm58.278,3.894a12.837,12.837,0,0,0,5.016-.924,2.122,2.122,0,0,0,1.452-1.98,2.2,2.2,0,0,0-2.178-2.178,14.38,14.38,0,0,1-3.1.462c-3.432,0-5.742-1.518-5.742-5.676V30.366h8.844a2.282,2.282,0,0,0,2.31-2.244,2.326,2.326,0,0,0-2.31-2.244H323.2V17.826a2.621,2.621,0,0,0-2.574-2.574,2.521,2.521,0,0,0-2.508,2.574v8.052h-2.772a2.268,2.268,0,0,0-2.244,2.244,2.313,2.313,0,0,0,2.244,2.244h2.772V50.958C318.12,57.888,322.278,60.594,327.756,60.594ZM372.24,28.122a2.522,2.522,0,0,0-2.508-2.574,2.482,2.482,0,0,0-2.508,2.574V45.414c0,6.4-4.422,10.692-10.23,10.692-6.006,0-9.438-3.96-9.438-10.3V28.122a2.577,2.577,0,0,0-2.574-2.574,2.482,2.482,0,0,0-2.508,2.574V47.064c0,8.118,4.818,13.662,13.068,13.662,5.874,0,9.372-2.97,11.682-6.666v3.7a2.509,2.509,0,1,0,5.016,0Zm42.5,32.538c6.8,0,12.144-3.762,12.144-10.23V50.3c0-6.138-5.676-8.184-10.956-9.768-4.554-1.386-8.778-2.64-8.778-5.874v-.132c0-2.838,2.574-4.95,6.6-4.95a18.467,18.467,0,0,1,8.91,2.64,2.552,2.552,0,0,0,1.122.264A2.212,2.212,0,0,0,426.03,30.3a2.467,2.467,0,0,0-1.254-2.112,23.771,23.771,0,0,0-10.89-2.9c-6.732,0-11.616,3.894-11.616,9.768v.132c0,6.27,5.94,8.118,11.286,9.636,4.488,1.254,8.514,2.574,8.514,6.006v.132c0,3.3-2.97,5.412-7.062,5.412a19.171,19.171,0,0,1-10.824-3.63,2.031,2.031,0,0,0-1.254-.4,2.212,2.212,0,0,0-2.244,2.178,2.3,2.3,0,0,0,.924,1.848A23.611,23.611,0,0,0,414.744,60.66Zm50.82-32.538a2.522,2.522,0,0,0-2.508-2.574,2.482,2.482,0,0,0-2.508,2.574V45.414c0,6.4-4.422,10.692-10.23,10.692-6.006,0-9.438-3.96-9.438-10.3V28.122a2.577,2.577,0,0,0-2.574-2.574,2.482,2.482,0,0,0-2.508,2.574V47.064c0,8.118,4.818,13.662,13.068,13.662,5.874,0,9.372-2.97,11.682-6.666v3.7a2.509,2.509,0,1,0,5.016,0Zm14.454,12.936c.66-6.666,5.148-11.616,11.088-11.616,6.8,0,10.362,5.412,10.89,11.616Zm24.75,14.586a2.159,2.159,0,0,0-1.452-3.828,2.226,2.226,0,0,0-1.452.594,13.947,13.947,0,0,1-9.834,3.96c-6.072,0-11.286-4.158-12.012-11.55H504.7a2.366,2.366,0,0,0,2.376-2.376c0-9.042-5.742-17.292-15.84-17.292-9.438,0-16.368,7.92-16.368,17.754v.132c0,10.56,7.656,17.754,17.028,17.754A17.346,17.346,0,0,0,504.768,55.644Zm11.286,2.112a2.541,2.541,0,1,0,5.082,0V46.14c0-9.834,5.412-14.784,12.012-15.576a2.522,2.522,0,0,0,2.244-2.574,2.443,2.443,0,0,0-2.508-2.574c-4.29,0-9.24,3.432-11.748,9.108v-6.4a2.536,2.536,0,0,0-2.574-2.574,2.564,2.564,0,0,0-2.508,2.574ZM554.2,60.594a12.837,12.837,0,0,0,5.016-.924,2.122,2.122,0,0,0,1.452-1.98,2.2,2.2,0,0,0-2.178-2.178,14.379,14.379,0,0,1-3.1.462c-3.432,0-5.742-1.518-5.742-5.676V30.366h8.844a2.282,2.282,0,0,0,2.31-2.244,2.326,2.326,0,0,0-2.31-2.244h-8.844V17.826a2.621,2.621,0,0,0-2.574-2.574,2.521,2.521,0,0,0-2.508,2.574v8.052h-2.772a2.268,2.268,0,0,0-2.244,2.244,2.313,2.313,0,0,0,2.244,2.244h2.772V50.958C544.566,57.888,548.724,60.594,554.2,60.594Zm17.292-19.536c.66-6.666,5.148-11.616,11.088-11.616,6.8,0,10.362,5.412,10.89,11.616Zm24.75,14.586a2.159,2.159,0,0,0-1.452-3.828,2.226,2.226,0,0,0-1.452.594,13.946,13.946,0,0,1-9.834,3.96c-6.072,0-11.286-4.158-12.012-11.55h24.684a2.365,2.365,0,0,0,2.376-2.376c0-9.042-5.742-17.292-15.84-17.292-9.438,0-16.368,7.92-16.368,17.754v.132c0,10.56,7.656,17.754,17.028,17.754A17.346,17.346,0,0,0,596.244,55.644Z" transform="translate(-2.55 36.75)"/></svg>