<svg xmlns="http://www.w3.org/2000/svg" xmlns:xlink="http://www.w3.org/1999/xlink" width="173.646" height="103.47" viewBox="0 0 173.646 103.47"><defs><style>.a{fill:url(#a);}.b{fill:#ff7a0c;}.c{fill:#ffc0f4;mix-blend-mode:soft-light;}.c,.d{isolation:isolate;}.d{fill:#cc639b;mix-blend-mode:multiply;}</style><linearGradient id="a" x1="0.5" y1="-10.67" x2="0.5" y2="-11.67" gradientUnits="objectBoundingBox"><stop offset="0" stop-color="#ff9036"/><stop offset="1" stop-color="#ffbd0c"/></linearGradient></defs><path class="a" d="M205.422,79.186l71.41,96.261s50.451-50.659,61.121-90.367C337.953,85.08,305.811,70.329,205.422,79.186Z" transform="translate(-164.307 -76.354)"/><path class="b" d="M234.853,77.159l-41.115,32.269s11.084-2.692,14.417-3.283c3.153-.56,11.5-1.749,11.5-1.749l77.663,73.4,8.942-4.378Z" transform="translate(-193.738 -74.327)"/><path class="c" d="M208.742,82.307s53.175-5.736,118.807.468c0,0-8.129,20.385-15.828,32.318l-77.892-1.862Z" transform="translate(-155.944 -67.445)"/><path class="d" d="M287,158.3H270.427s-23.253-20.449-30.636-27.659c-10.786-10.529-41.956-43.994-41.956-43.994l11.5-1.749Z" transform="translate(-183.418 -54.831)"/></svg>