<svg xmlns="http://www.w3.org/2000/svg" width="370.874" height="362.625" viewBox="0 0 370.874 362.625"><defs><style>.a{fill:#cc639b;mix-blend-mode:multiply;isolation:isolate;}</style></defs><path class="a" d="M426.754,455.3c29.708-21.207,77.607-84.862,82.435-150.768,3.624-49.458-29.237-152.068-126.847-184.876s-179.149,2.923-222.524,49.676a138.79,138.79,0,0,0-13.97,17.843l-2.826-1.694c.188-.325.353-.626.564-.928.589-.9,1.179-1.81,1.814-2.715a6.6,6.6,0,0,1,.566-.858c.612-.928,1.248-1.856,1.907-2.761.731-1.09,1.485-2.158,2.285-3.2.661-.9,1.343-1.833,2.028-2.738.965-1.3,1.954-2.576,2.968-3.852,2.852-3.573,5.842-7.03,8.905-10.395,1.037-1.137,2.1-2.274,3.181-3.388,2.144-2.251,4.36-4.432,6.6-6.566,1.107-1.067,2.239-2.111,3.369-3.156,0-.023.023-.023.049-.046,1.153-1.021,2.309-2.042,3.485-3.063,1.109-.975,2.262-1.949,3.418-2.924a2.483,2.483,0,0,1,.306-.232c1.153-.951,2.285-1.856,3.439-2.784,2.45-1.926,4.949-3.782,7.492-5.615.52-.394,1.06-.789,1.626-1.16.541-.394,1.107-.766,1.673-1.137a201.261,201.261,0,0,1,104.3-35.035c110.826-5.476,205.136,78.981,210.649,188.635C517.248,353,482.238,417.529,426.754,455.3Z" transform="translate(-143.023 -92.677)"/></svg>