<svg xmlns="http://www.w3.org/2000/svg" width="562.481" height="549.971" viewBox="0 0 562.481 549.971"><defs><style>.a{fill:#cc639b;mix-blend-mode:multiply;isolation:isolate;}</style></defs><path class="a" d="M573.341,642.648c45.057-32.163,117.7-128.705,125.025-228.661,5.5-75.01-44.342-230.632-192.381-280.39s-271.7,4.434-337.488,75.341A210.5,210.5,0,0,0,147.309,236l-4.286-2.569c.285-.493.535-.95.855-1.408.894-1.372,1.788-2.745,2.752-4.117a10.013,10.013,0,0,1,.859-1.3c.929-1.408,1.893-2.815,2.893-4.187,1.108-1.654,2.252-3.273,3.466-4.856,1-1.372,2.037-2.78,3.076-4.152,1.464-1.971,2.963-3.906,4.5-5.841,4.325-5.419,8.861-10.662,13.506-15.765,1.573-1.724,3.181-3.449,4.824-5.138,3.251-3.413,6.612-6.721,10-9.959,1.679-1.619,3.4-3.2,5.109-4.786,0-.035.035-.035.074-.07,1.749-1.548,3.5-3.1,5.286-4.645,1.682-1.478,3.431-2.956,5.183-4.434a3.764,3.764,0,0,1,.465-.352c1.749-1.443,3.466-2.815,5.215-4.223,3.716-2.921,7.506-5.736,11.363-8.516.788-.6,1.608-1.2,2.467-1.759.82-.6,1.678-1.161,2.537-1.724A305.24,305.24,0,0,1,385.64,93.059c168.082-8.3,311.117,119.785,319.478,286.09C710.587,487.5,657.489,585.36,573.341,642.648Z" transform="translate(-143.023 -92.677)"/></svg>