<svg xmlns="http://www.w3.org/2000/svg" width="587.531" height="145.634" viewBox="0 0 587.531 145.634"><defs><style>.a{fill:#fff;}</style></defs><g transform="translate(-177.296 -374.108)"><path class="a" d="M16.15.456a15.867,15.867,0,0,0,9.766-3.42A1.614,1.614,0,0,0,26.6-4.1v-8.7a1.006,1.006,0,0,0-.988-.988h-9.2a.925.925,0,0,0-.912.912.925.925,0,0,0,.912.912H24.7v7.638a13.66,13.66,0,0,1-8.474,3.04c-7.106,0-11.4-5.13-11.4-12.008v-.076c0-6.422,4.522-11.894,10.982-11.894a11.911,11.911,0,0,1,7.98,2.7,1.023,1.023,0,0,0,.608.266,1.006,1.006,0,0,0,.988-.988,1.01,1.01,0,0,0-.38-.8,13.932,13.932,0,0,0-9.082-2.964C7.98-27.056,2.774-20.482,2.774-13.3v.076C2.774-5.738,7.752.456,16.15.456ZM33.326-.8a.918.918,0,0,0,.95.95.91.91,0,0,0,.912-.95V-7.942c0-6.232,3.686-9.31,7.79-9.69a1.012,1.012,0,0,0,.988-1.026.99.99,0,0,0-.988-1.026c-2.736,0-6.118,2.052-7.79,5.814v-4.712a.918.918,0,0,0-.95-.95.91.91,0,0,0-.912.95ZM53.466.456a8.814,8.814,0,0,0,7.41-3.686V-.8a.888.888,0,0,0,.912.95A.888.888,0,0,0,62.7-.8V-12.084a7.357,7.357,0,0,0-1.976-5.472,8.373,8.373,0,0,0-6.118-2.128,15.017,15.017,0,0,0-6.384,1.444.946.946,0,0,0-.532.836.911.911,0,0,0,.874.874.991.991,0,0,0,.418-.114,12.531,12.531,0,0,1,5.51-1.292c3.99,0,6.384,2.014,6.384,5.928v.836a23.317,23.317,0,0,0-6.422-.836c-5.016,0-8.474,2.28-8.474,6.308v.076C45.98-1.6,49.856.456,53.466.456Zm.114-1.748c-2.964,0-5.624-1.634-5.624-4.446v-.076c0-2.7,2.28-4.522,6.384-4.522a25.692,25.692,0,0,1,6.574.874v2.2C60.914-3.724,57.532-1.292,53.58-1.292ZM77.938.456a9.915,9.915,0,0,0,7.486-3.344.838.838,0,0,0,.228-.57.981.981,0,0,0-.912-.912.858.858,0,0,0-.608.3,8.552,8.552,0,0,1-6.08,2.774,8.15,8.15,0,0,1-7.98-8.4v-.076A8.007,8.007,0,0,1,77.9-18.088a8.431,8.431,0,0,1,6,2.736.959.959,0,0,0,.646.228.941.941,0,0,0,.95-.95,1.013,1.013,0,0,0-.266-.684,10.174,10.174,0,0,0-7.3-3.078A10.065,10.065,0,0,0,68.058-9.69v.076A9.974,9.974,0,0,0,77.938.456Zm13.186-25.84a1.12,1.12,0,0,0,1.14,1.14,1.152,1.152,0,0,0,1.178-1.14v-.646a1.152,1.152,0,0,0-1.178-1.14,1.12,1.12,0,0,0-1.14,1.14ZM91.352-.8a.918.918,0,0,0,.95.95.888.888,0,0,0,.912-.95V-18.582a.918.918,0,0,0-.95-.95.91.91,0,0,0-.912.95ZM106.438.456a8.814,8.814,0,0,0,7.41-3.686V-.8a.888.888,0,0,0,.912.95.888.888,0,0,0,.912-.95V-12.084a7.357,7.357,0,0,0-1.976-5.472,8.373,8.373,0,0,0-6.118-2.128,15.017,15.017,0,0,0-6.384,1.444.946.946,0,0,0-.532.836.911.911,0,0,0,.874.874.991.991,0,0,0,.418-.114,12.531,12.531,0,0,1,5.51-1.292c3.99,0,6.384,2.014,6.384,5.928v.836a23.317,23.317,0,0,0-6.422-.836c-5.016,0-8.474,2.28-8.474,6.308v.076C98.952-1.6,102.828.456,106.438.456Zm.114-1.748c-2.964,0-5.624-1.634-5.624-4.446v-.076c0-2.7,2.28-4.522,6.384-4.522a25.692,25.692,0,0,1,6.574.874v2.2C113.886-3.724,110.5-1.292,106.552-1.292ZM128.63.38c3.724,0,6.688-2.2,6.688-5.662v-.076c0-3.42-3.268-4.56-6.384-5.434-2.774-.8-5.4-1.6-5.4-3.762v-.076c0-1.938,1.748-3.382,4.408-3.382a10.727,10.727,0,0,1,5.4,1.6.983.983,0,0,0,.532.152.925.925,0,0,0,.912-.912,1,1,0,0,0-.494-.836,13.206,13.206,0,0,0-6.27-1.748c-3.762,0-6.384,2.242-6.384,5.358v.076c0,3.458,3.5,4.408,6.65,5.32,2.7.76,5.13,1.6,5.13,3.876v.076c0,2.242-2.052,3.686-4.674,3.686a10.873,10.873,0,0,1-6.46-2.2,1.051,1.051,0,0,0-.608-.19.925.925,0,0,0-.912.912,1,1,0,0,0,.342.722A13.321,13.321,0,0,0,128.63.38Zm24.016,4.9a.918.918,0,0,0,.95.95.888.888,0,0,0,.912-.95V-4.18a9.321,9.321,0,0,0,7.98,4.636c4.674,0,9.424-3.838,9.424-10.146v-.076c0-6.308-4.75-10.07-9.424-10.07-3.838,0-6.308,2.242-7.98,4.788v-3.534a.918.918,0,0,0-.95-.95.888.888,0,0,0-.912.95ZM162.3-1.33a8.092,8.092,0,0,1-7.9-8.322v-.076a8.117,8.117,0,0,1,7.9-8.322c4.066,0,7.6,3.268,7.6,8.36v.076C169.9-4.408,166.516-1.33,162.3-1.33ZM186.314.456A10.013,10.013,0,0,0,196.308-9.69v-.076a9.909,9.909,0,0,0-9.918-10.07A10.013,10.013,0,0,0,176.4-9.69v.076A9.909,9.909,0,0,0,186.314.456Zm.076-1.748a8.125,8.125,0,0,1-7.98-8.4v-.076c0-4.56,3.306-8.322,7.9-8.322a8.125,8.125,0,0,1,7.98,8.4v.076C194.294-5.054,190.988-1.292,186.39-1.292ZM202.046-.8a.918.918,0,0,0,.95.95.91.91,0,0,0,.912-.95V-7.942c0-6.232,3.686-9.31,7.79-9.69a1.012,1.012,0,0,0,.988-1.026.99.99,0,0,0-.988-1.026c-2.736,0-6.118,2.052-7.79,5.814v-4.712a.918.918,0,0,0-.95-.95.91.91,0,0,0-.912.95ZM234.536.456a8.814,8.814,0,0,0,7.41-3.686V-.8a.888.888,0,0,0,.912.95.888.888,0,0,0,.912-.95V-12.084a7.358,7.358,0,0,0-1.976-5.472,8.373,8.373,0,0,0-6.118-2.128,15.017,15.017,0,0,0-6.384,1.444.946.946,0,0,0-.532.836.911.911,0,0,0,.874.874.991.991,0,0,0,.418-.114,12.531,12.531,0,0,1,5.51-1.292c3.99,0,6.384,2.014,6.384,5.928v.836a23.317,23.317,0,0,0-6.422-.836c-5.016,0-8.474,2.28-8.474,6.308v.076C227.05-1.6,230.926.456,234.536.456Zm.114-1.748c-2.964,0-5.624-1.634-5.624-4.446v-.076c0-2.7,2.28-4.522,6.384-4.522a25.692,25.692,0,0,1,6.574.874v2.2C241.984-3.724,238.6-1.292,234.65-1.292ZM259.008.456a9.915,9.915,0,0,0,7.486-3.344.838.838,0,0,0,.228-.57.981.981,0,0,0-.912-.912.858.858,0,0,0-.608.3,8.552,8.552,0,0,1-6.08,2.774,8.15,8.15,0,0,1-7.98-8.4v-.076a8.007,8.007,0,0,1,7.828-8.322,8.431,8.431,0,0,1,6,2.736.959.959,0,0,0,.646.228.941.941,0,0,0,.95-.95,1.013,1.013,0,0,0-.266-.684,10.174,10.174,0,0,0-7.3-3.078,10.065,10.065,0,0,0-9.88,10.146v.076A9.974,9.974,0,0,0,259.008.456ZM278.616.342a8,8,0,0,0,2.736-.494.844.844,0,0,0,.608-.8.87.87,0,0,0-.836-.836,8.127,8.127,0,0,1-2.2.38c-2.242,0-3.876-.988-3.876-3.762v-12.5h6.08a.877.877,0,0,0,.874-.836.911.911,0,0,0-.874-.874h-6.08v-5.4a.941.941,0,0,0-.95-.95.91.91,0,0,0-.912.95v5.4h-2.09a.877.877,0,0,0-.874.836.911.911,0,0,0,.874.874h2.09V-4.978C273.182-1.292,275.614.342,278.616.342Zm24.966-18.924a.918.918,0,0,0-.95-.95.888.888,0,0,0-.912.95V-8.17a6.644,6.644,0,0,1-6.726,6.916c-3.914,0-6.156-2.622-6.156-6.612V-18.582a.918.918,0,0,0-.95-.95.888.888,0,0,0-.912.95V-7.524c0,4.636,2.85,7.98,7.752,7.98A7.588,7.588,0,0,0,301.72-3.61V-.8a.918.918,0,0,0,.95.95.91.91,0,0,0,.912-.95ZM316.54.456a8.814,8.814,0,0,0,7.41-3.686V-.8a.888.888,0,0,0,.912.95.888.888,0,0,0,.912-.95V-12.084a7.358,7.358,0,0,0-1.976-5.472,8.373,8.373,0,0,0-6.118-2.128A15.017,15.017,0,0,0,311.3-18.24a.946.946,0,0,0-.532.836.911.911,0,0,0,.874.874.991.991,0,0,0,.418-.114,12.531,12.531,0,0,1,5.51-1.292c3.99,0,6.384,2.014,6.384,5.928v.836a23.317,23.317,0,0,0-6.422-.836c-5.016,0-8.474,2.28-8.474,6.308v.076C309.054-1.6,312.93.456,316.54.456Zm.114-1.748c-2.964,0-5.624-1.634-5.624-4.446v-.076c0-2.7,2.28-4.522,6.384-4.522a25.692,25.692,0,0,1,6.574.874v2.2C323.988-3.724,320.606-1.292,316.654-1.292ZM332.728-.8a.918.918,0,0,0,.95.95.888.888,0,0,0,.912-.95V-26.942a.941.941,0,0,0-.95-.95.91.91,0,0,0-.912.95Zm9.234-24.586a1.12,1.12,0,0,0,1.14,1.14,1.152,1.152,0,0,0,1.178-1.14v-.646a1.152,1.152,0,0,0-1.178-1.14,1.12,1.12,0,0,0-1.14,1.14ZM342.19-.8a.918.918,0,0,0,.95.95.888.888,0,0,0,.912-.95V-18.582a.918.918,0,0,0-.95-.95.91.91,0,0,0-.912.95Zm8.854.8H366.13a.843.843,0,0,0,.836-.836.843.843,0,0,0-.836-.836h-13.3l13.528-16.112a1.159,1.159,0,0,0,.342-.8v-.038a.871.871,0,0,0-.874-.76H351.272a.843.843,0,0,0-.836.836.843.843,0,0,0,.836.836H364.04L350.512-1.6a1.159,1.159,0,0,0-.342.8V-.76A.871.871,0,0,0,351.044,0Zm27.284.456a8.814,8.814,0,0,0,7.41-3.686V-.8a.888.888,0,0,0,.912.95.888.888,0,0,0,.912-.95V-12.084a7.358,7.358,0,0,0-1.976-5.472,8.373,8.373,0,0,0-6.118-2.128,15.017,15.017,0,0,0-6.384,1.444.946.946,0,0,0-.532.836.911.911,0,0,0,.874.874.991.991,0,0,0,.418-.114,12.531,12.531,0,0,1,5.51-1.292c3.99,0,6.384,2.014,6.384,5.928v.836a23.317,23.317,0,0,0-6.422-.836c-5.016,0-8.474,2.28-8.474,6.308v.076C370.842-1.6,374.718.456,378.328.456Zm.114-1.748c-2.964,0-5.624-1.634-5.624-4.446v-.076c0-2.7,2.28-4.522,6.384-4.522a25.692,25.692,0,0,1,6.574.874v2.2C385.776-3.724,382.394-1.292,378.442-1.292ZM394.25-.8a.918.918,0,0,0,.95.95.91.91,0,0,0,.912-.95V-7.942c0-6.232,3.686-9.31,7.79-9.69a1.012,1.012,0,0,0,.988-1.026.99.99,0,0,0-.988-1.026c-2.736,0-6.118,2.052-7.79,5.814v-4.712a.918.918,0,0,0-.95-.95.91.91,0,0,0-.912.95ZM427.31.342a8,8,0,0,0,2.736-.494.844.844,0,0,0,.608-.8.87.87,0,0,0-.836-.836,8.127,8.127,0,0,1-2.2.38c-2.242,0-3.876-.988-3.876-3.762v-12.5h6.08a.877.877,0,0,0,.874-.836.911.911,0,0,0-.874-.874h-6.08v-5.4a.941.941,0,0,0-.95-.95.91.91,0,0,0-.912.95v5.4h-2.09a.877.877,0,0,0-.874.836.911.911,0,0,0,.874.874h2.09V-4.978C421.876-1.292,424.308.342,427.31.342Zm24.966-18.924a.918.918,0,0,0-.95-.95.888.888,0,0,0-.912.95V-8.17a6.644,6.644,0,0,1-6.726,6.916c-3.914,0-6.156-2.622-6.156-6.612V-18.582a.918.918,0,0,0-.95-.95.888.888,0,0,0-.912.95V-7.524c0,4.636,2.85,7.98,7.752,7.98a7.588,7.588,0,0,0,6.992-4.066V-.8a.918.918,0,0,0,.95.95.91.91,0,0,0,.912-.95ZM465.614.38c3.724,0,6.688-2.2,6.688-5.662v-.076c0-3.42-3.268-4.56-6.384-5.434-2.774-.8-5.4-1.6-5.4-3.762v-.076c0-1.938,1.748-3.382,4.408-3.382a10.727,10.727,0,0,1,5.4,1.6.984.984,0,0,0,.532.152.925.925,0,0,0,.912-.912,1,1,0,0,0-.494-.836,13.206,13.206,0,0,0-6.27-1.748c-3.762,0-6.384,2.242-6.384,5.358v.076c0,3.458,3.5,4.408,6.65,5.32,2.7.76,5.13,1.6,5.13,3.876v.076c0,2.242-2.052,3.686-4.674,3.686a10.873,10.873,0,0,1-6.46-2.2,1.051,1.051,0,0,0-.608-.19.925.925,0,0,0-.912.912,1,1,0,0,0,.342.722A13.321,13.321,0,0,0,465.614.38Zm42.028-27.322a.918.918,0,0,0-.95-.95.888.888,0,0,0-.912.95V-15.2a9.321,9.321,0,0,0-7.98-4.636c-4.674,0-9.424,3.838-9.424,10.146v.076c0,6.308,4.75,10.07,9.424,10.07,3.838,0,6.308-2.242,7.98-4.788V-.8a.918.918,0,0,0,.95.95.888.888,0,0,0,.912-.95ZM497.99-18.05a8.092,8.092,0,0,1,7.9,8.322v.076a8.117,8.117,0,0,1-7.9,8.322c-4.066,0-7.6-3.268-7.6-8.36v-.076C490.39-14.972,493.772-18.05,497.99-18.05ZM520.6.456a8.814,8.814,0,0,0,7.41-3.686V-.8a.888.888,0,0,0,.912.95.888.888,0,0,0,.912-.95V-12.084a7.357,7.357,0,0,0-1.976-5.472,8.373,8.373,0,0,0-6.118-2.128,15.017,15.017,0,0,0-6.384,1.444.946.946,0,0,0-.532.836.911.911,0,0,0,.874.874.99.99,0,0,0,.418-.114,12.531,12.531,0,0,1,5.51-1.292c3.99,0,6.384,2.014,6.384,5.928v.836a23.317,23.317,0,0,0-6.422-.836c-5.016,0-8.474,2.28-8.474,6.308v.076C513.114-1.6,516.99.456,520.6.456Zm.114-1.748c-2.964,0-5.624-1.634-5.624-4.446v-.076c0-2.7,2.28-4.522,6.384-4.522a25.691,25.691,0,0,1,6.574.874v2.2C528.048-3.724,524.666-1.292,520.714-1.292ZM542.792.342a8,8,0,0,0,2.736-.494.843.843,0,0,0,.608-.8.87.87,0,0,0-.836-.836,8.126,8.126,0,0,1-2.2.38c-2.242,0-3.876-.988-3.876-3.762v-12.5h6.08a.877.877,0,0,0,.874-.836.911.911,0,0,0-.874-.874h-6.08v-5.4a.941.941,0,0,0-.95-.95.91.91,0,0,0-.912.95v5.4h-2.09a.877.877,0,0,0-.874.836.911.911,0,0,0,.874.874h2.09V-4.978C537.358-1.292,539.79.342,542.792.342ZM559.55.456A10.013,10.013,0,0,0,569.544-9.69v-.076a9.909,9.909,0,0,0-9.918-10.07A10.013,10.013,0,0,0,549.632-9.69v.076A9.909,9.909,0,0,0,559.55.456Zm.076-1.748a8.125,8.125,0,0,1-7.98-8.4v-.076c0-4.56,3.306-8.322,7.9-8.322a8.125,8.125,0,0,1,7.98,8.4v.076C567.53-5.054,564.224-1.292,559.626-1.292ZM581.552.38c3.724,0,6.688-2.2,6.688-5.662v-.076c0-3.42-3.268-4.56-6.384-5.434-2.774-.8-5.4-1.6-5.4-3.762v-.076c0-1.938,1.748-3.382,4.408-3.382a10.727,10.727,0,0,1,5.4,1.6.984.984,0,0,0,.532.152.925.925,0,0,0,.912-.912,1,1,0,0,0-.494-.836,13.206,13.206,0,0,0-6.27-1.748c-3.762,0-6.384,2.242-6.384,5.358v.076c0,3.458,3.5,4.408,6.65,5.32,2.7.76,5.13,1.6,5.13,3.876v.076c0,2.242-2.052,3.686-4.674,3.686a10.873,10.873,0,0,1-6.46-2.2,1.051,1.051,0,0,0-.608-.19.925.925,0,0,0-.912.912,1,1,0,0,0,.342.722A13.32,13.32,0,0,0,581.552.38Z" transform="translate(175 402)"/><path class="a" d="M10.153,10.677c4.781,0,8.188-2.489,11.135-9.5L34.846-31.178a2.017,2.017,0,0,0,.2-.851A1.622,1.622,0,0,0,33.4-33.667a1.63,1.63,0,0,0-1.572,1.179L20.174-3.537,6.812-32.357c-.328-.721-.72-1.31-1.7-1.31a1.638,1.638,0,0,0-1.7,1.638,2.745,2.745,0,0,0,.262.982L18.6-.2l-.2.459c-2.161,4.978-4.388,7.4-8.056,7.4a11.317,11.317,0,0,1-4.258-.655,3.5,3.5,0,0,0-1.048-.262A1.482,1.482,0,0,0,3.537,8.253a1.386,1.386,0,0,0,.917,1.375A15.5,15.5,0,0,0,10.153,10.677ZM64.256,9.1a1.583,1.583,0,0,0,1.638,1.638A1.531,1.531,0,0,0,67.465,9.1V-7.2C70.216-3.013,74.539.786,81.22.786,89.277.786,97.464-5.83,97.464-16.7v-.131c0-10.873-8.187-17.358-16.244-17.358-6.616,0-10.873,3.865-13.755,8.253v-6.091a1.583,1.583,0,0,0-1.638-1.638,1.531,1.531,0,0,0-1.572,1.638Zm16.637-11.4A13.948,13.948,0,0,1,67.269-16.637v-.131A13.991,13.991,0,0,1,80.893-31.112c7.008,0,13.1,5.633,13.1,14.41v.131C93.993-7.6,88.163-2.293,80.893-2.293Zm26.593.917A1.583,1.583,0,0,0,109.123.262a1.568,1.568,0,0,0,1.572-1.637V-13.69c0-10.742,6.353-16.047,13.427-16.7a1.744,1.744,0,0,0,1.7-1.769,1.707,1.707,0,0,0-1.7-1.769c-4.716,0-10.546,3.537-13.427,10.021v-8.122a1.583,1.583,0,0,0-1.638-1.638,1.568,1.568,0,0,0-1.572,1.638Zm54.168-30.654a1.583,1.583,0,0,0-1.637-1.638,1.531,1.531,0,0,0-1.572,1.638v17.947c0,6.943-5.044,11.921-11.594,11.921-6.746,0-10.611-4.519-10.611-11.4V-32.029a1.583,1.583,0,0,0-1.637-1.638,1.531,1.531,0,0,0-1.572,1.638v19.06c0,7.991,4.913,13.755,13.362,13.755a13.079,13.079,0,0,0,12.052-7.008v4.847A1.583,1.583,0,0,0,160.082.262a1.568,1.568,0,0,0,1.572-1.637Zm13.3,13.755c.589-7.4,5.7-12.969,12.314-12.969,7.663,0,11.528,6.222,11.987,12.969Zm26,13.624a1.575,1.575,0,0,0,.524-1.113,1.538,1.538,0,0,0-1.572-1.507,1.425,1.425,0,0,0-1.048.458,14.783,14.783,0,0,1-10.807,4.585c-6.55,0-12.511-4.847-13.1-13.165h26.2a1.63,1.63,0,0,0,1.572-1.506c0-9.563-5.961-17.292-15.327-17.292-9.039,0-15.851,7.729-15.851,17.423v.131c0,10.415,7.6,17.423,16.375,17.423A16.986,16.986,0,0,0,200.954-4.651Zm11.135,3.275A1.622,1.622,0,0,0,213.727.262,1.568,1.568,0,0,0,215.3-1.375V-7.2c2.751,4.192,7.074,7.991,13.755,7.991C237.11.786,245.3-5.83,245.3-16.7v-.131c0-10.873-8.187-17.358-16.244-17.358-6.616,0-10.873,3.865-13.755,8.253v-20.5a1.583,1.583,0,0,0-1.637-1.638,1.531,1.531,0,0,0-1.572,1.638Zm16.637-.917A13.948,13.948,0,0,1,215.1-16.637v-.131a13.991,13.991,0,0,1,13.624-14.344c7.008,0,13.1,5.633,13.1,14.41v.131C241.826-7.6,236-2.293,228.726-2.293ZM265.471.786a15.193,15.193,0,0,0,12.772-6.354v4.192A1.531,1.531,0,0,0,279.816.262a1.531,1.531,0,0,0,1.572-1.637V-20.829c0-4.127-1.179-7.205-3.406-9.432-2.423-2.424-6.026-3.668-10.546-3.668a25.885,25.885,0,0,0-11,2.489A1.63,1.63,0,0,0,255.515-30a1.57,1.57,0,0,0,1.507,1.507,1.708,1.708,0,0,0,.72-.2,21.6,21.6,0,0,1,9.5-2.227c6.878,0,11,3.472,11,10.218v1.441A40.191,40.191,0,0,0,267.174-20.7c-8.646,0-14.607,3.93-14.607,10.873v.131C252.568-2.751,259.249.786,265.471.786Zm.2-3.013c-5.109,0-9.694-2.816-9.694-7.663v-.131c0-4.651,3.93-7.795,11-7.795a44.285,44.285,0,0,1,11.332,1.507v3.8C278.31-6.419,272.48-2.227,265.668-2.227ZM323.7.589a13.791,13.791,0,0,0,4.716-.851,1.454,1.454,0,0,0,1.048-1.376,1.5,1.5,0,0,0-1.441-1.441,14.007,14.007,0,0,1-3.8.655c-3.865,0-6.681-1.7-6.681-6.485V-30.458h10.48A1.512,1.512,0,0,0,329.53-31.9a1.57,1.57,0,0,0-1.507-1.507h-10.48v-9.3a1.622,1.622,0,0,0-1.637-1.637,1.568,1.568,0,0,0-1.572,1.637v9.3h-3.6a1.512,1.512,0,0,0-1.507,1.441,1.57,1.57,0,0,0,1.507,1.507h3.6V-8.58C314.334-2.227,318.526.589,323.7.589Zm43.034-32.619a1.583,1.583,0,0,0-1.638-1.638,1.531,1.531,0,0,0-1.572,1.638v17.947c0,6.943-5.043,11.921-11.594,11.921-6.746,0-10.611-4.519-10.611-11.4V-32.029a1.583,1.583,0,0,0-1.637-1.638,1.531,1.531,0,0,0-1.572,1.638v19.06c0,7.991,4.913,13.755,13.362,13.755a13.079,13.079,0,0,0,12.052-7.008v4.847A1.583,1.583,0,0,0,365.163.262a1.568,1.568,0,0,0,1.572-1.637ZM409.375.655c6.419,0,11.528-3.8,11.528-9.759v-.131c0-5.9-5.633-7.86-11-9.367-4.781-1.375-9.3-2.751-9.3-6.484v-.131c0-3.34,3.013-5.83,7.6-5.83a18.49,18.49,0,0,1,9.3,2.751,1.7,1.7,0,0,0,.917.262,1.594,1.594,0,0,0,1.572-1.572,1.73,1.73,0,0,0-.852-1.441,22.762,22.762,0,0,0-10.807-3.013c-6.484,0-11,3.864-11,9.235v.131c0,5.96,6.026,7.6,11.463,9.17,4.65,1.31,8.842,2.751,8.842,6.681v.131c0,3.865-3.537,6.354-8.057,6.354a18.741,18.741,0,0,1-11.135-3.8,1.812,1.812,0,0,0-1.048-.328,1.594,1.594,0,0,0-1.572,1.572,1.732,1.732,0,0,0,.589,1.245A22.961,22.961,0,0,0,409.375.655ZM459.09-32.029a1.583,1.583,0,0,0-1.637-1.638,1.531,1.531,0,0,0-1.572,1.638v17.947c0,6.943-5.043,11.921-11.594,11.921-6.746,0-10.611-4.519-10.611-11.4V-32.029a1.583,1.583,0,0,0-1.637-1.638,1.531,1.531,0,0,0-1.572,1.638v19.06c0,7.991,4.913,13.755,13.362,13.755A13.079,13.079,0,0,0,455.88-6.222v4.847A1.583,1.583,0,0,0,457.518.262a1.568,1.568,0,0,0,1.572-1.637Zm13.3,13.755c.59-7.4,5.7-12.969,12.314-12.969,7.663,0,11.528,6.222,11.986,12.969Zm26,13.624a1.575,1.575,0,0,0,.524-1.113,1.538,1.538,0,0,0-1.572-1.507,1.425,1.425,0,0,0-1.048.458,14.783,14.783,0,0,1-10.807,4.585c-6.55,0-12.51-4.847-13.1-13.165h26.2a1.63,1.63,0,0,0,1.572-1.506c0-9.563-5.96-17.292-15.327-17.292-9.039,0-15.851,7.729-15.851,17.423v.131c0,10.415,7.6,17.423,16.375,17.423A16.986,16.986,0,0,0,498.389-4.651Zm11.135,3.275A1.583,1.583,0,0,0,511.162.262a1.568,1.568,0,0,0,1.572-1.637V-13.69c0-10.742,6.354-16.047,13.427-16.7a1.744,1.744,0,0,0,1.7-1.769,1.707,1.707,0,0,0-1.7-1.769c-4.716,0-10.545,3.537-13.427,10.021v-8.122a1.583,1.583,0,0,0-1.637-1.638,1.568,1.568,0,0,0-1.572,1.638ZM546.859.589a13.791,13.791,0,0,0,4.716-.851,1.454,1.454,0,0,0,1.048-1.376,1.5,1.5,0,0,0-1.441-1.441,14.007,14.007,0,0,1-3.8.655c-3.865,0-6.681-1.7-6.681-6.485V-30.458h10.48a1.512,1.512,0,0,0,1.506-1.441,1.57,1.57,0,0,0-1.506-1.507H540.7v-9.3a1.622,1.622,0,0,0-1.638-1.637,1.568,1.568,0,0,0-1.572,1.637v9.3h-3.6a1.512,1.512,0,0,0-1.507,1.441,1.57,1.57,0,0,0,1.507,1.507h3.6V-8.58C537.493-2.227,541.685.589,546.859.589Zm15.2-18.864c.589-7.4,5.7-12.969,12.314-12.969,7.664,0,11.528,6.222,11.987,12.969Zm26,13.624a1.575,1.575,0,0,0,.524-1.113,1.538,1.538,0,0,0-1.572-1.507,1.425,1.425,0,0,0-1.048.458,14.783,14.783,0,0,1-10.807,4.585c-6.55,0-12.51-4.847-13.1-13.165h26.2a1.63,1.63,0,0,0,1.572-1.506c0-9.563-5.961-17.292-15.327-17.292-9.039,0-15.851,7.729-15.851,17.423v.131c0,10.415,7.6,17.423,16.375,17.423A16.986,16.986,0,0,0,588.059-4.651Z" transform="translate(175 509)"/><path class="a" d="M2.3-.738a.957.957,0,0,0,.984.9A1.082,1.082,0,0,0,4.3-.615L7.667-8.036H24.6l3.362,7.38a1.231,1.231,0,0,0,1.066.82A1.007,1.007,0,0,0,30.053-.82a1.406,1.406,0,0,0-.164-.656L17.671-27.962a1.5,1.5,0,0,0-1.435-1.025h-.082a1.5,1.5,0,0,0-1.435,1.025L2.46-1.394A1.529,1.529,0,0,0,2.3-.738ZM8.569-9.963l7.585-16.605L23.7-9.963ZM36.2-.861A.991.991,0,0,0,37.228.164a.958.958,0,0,0,.984-1.025V-12.095a7.168,7.168,0,0,1,7.257-7.462c4.223,0,6.642,2.829,6.642,7.134V-.861A.991.991,0,0,0,53.136.164.958.958,0,0,0,54.12-.861V-12.792c0-5-3.075-8.61-8.364-8.61a8.187,8.187,0,0,0-7.544,4.387V-29.069a1.015,1.015,0,0,0-1.025-1.025.981.981,0,0,0-.984,1.025ZM70.6.492A10.8,10.8,0,0,0,81.385-10.455v-.082A10.691,10.691,0,0,0,70.684-21.4,10.8,10.8,0,0,0,59.9-10.455v.082A10.691,10.691,0,0,0,70.6.492Zm.082-1.886a8.767,8.767,0,0,1-8.61-9.061v-.082c0-4.92,3.567-8.979,8.528-8.979a8.767,8.767,0,0,1,8.61,9.061v.082C79.212-5.453,75.645-1.394,70.684-1.394Zm16.892.533A.991.991,0,0,0,88.6.164a.981.981,0,0,0,.984-1.025V-8.569c0-6.724,3.977-10.045,8.4-10.455a1.092,1.092,0,0,0,1.066-1.107,1.068,1.068,0,0,0-1.066-1.107c-2.952,0-6.6,2.214-8.4,6.273v-5.084a.991.991,0,0,0-1.025-1.025.981.981,0,0,0-.984,1.025ZM109.306.492a9.51,9.51,0,0,0,8-3.977V-.861a.958.958,0,0,0,.984,1.025.958.958,0,0,0,.984-1.025V-13.038a7.938,7.938,0,0,0-2.132-5.9,9.034,9.034,0,0,0-6.6-2.3,16.2,16.2,0,0,0-6.888,1.558,1.02,1.02,0,0,0-.574.9.982.982,0,0,0,.943.943,1.069,1.069,0,0,0,.451-.123,13.52,13.52,0,0,1,5.945-1.394c4.305,0,6.888,2.173,6.888,6.4v.9a25.158,25.158,0,0,0-6.929-.9c-5.412,0-9.143,2.46-9.143,6.806v.082C101.229-1.722,105.411.492,109.306.492Zm.123-1.886c-3.2,0-6.068-1.763-6.068-4.8v-.082c0-2.911,2.46-4.879,6.888-4.879a27.72,27.72,0,0,1,7.093.943v2.378C117.342-4.018,113.693-1.394,109.429-1.394Zm28.987-1.517A3.132,3.132,0,0,0,141.573.246a3.132,3.132,0,0,0,3.157-3.157v-5.7h4.8c6.437,0,11.6-3.444,11.6-10.086v-.082c0-5.863-4.141-9.922-10.988-9.922h-8.569a3.132,3.132,0,0,0-3.157,3.157Zm6.314-11.316V-23h4.879c3.157,0,5.125,1.517,5.125,4.346v.082c0,2.46-1.845,4.346-5,4.346ZM165.8-2.911A3.132,3.132,0,0,0,168.961.246a3.132,3.132,0,0,0,3.157-3.157V-9.184h5.043l6.15,7.79a3.779,3.779,0,0,0,3.116,1.64,2.937,2.937,0,0,0,2.993-2.911A3.681,3.681,0,0,0,188.4-5.084l-4.387-5.33a8.761,8.761,0,0,0,5.74-8.733v-.082a9.009,9.009,0,0,0-2.46-6.56c-1.886-1.886-4.715-2.911-8.364-2.911h-9.963a3.132,3.132,0,0,0-3.157,3.157Zm6.314-11.849V-23h6.273c3.075,0,4.961,1.394,4.961,4.1v.082c0,2.419-1.763,4.059-4.838,4.059ZM198.6,0h16.113a2.8,2.8,0,0,0,2.829-2.788,2.835,2.835,0,0,0-2.829-2.829h-13v-6.027h10.947a2.8,2.8,0,0,0,2.829-2.788,2.835,2.835,0,0,0-2.829-2.829H201.72v-5.822h12.792a2.8,2.8,0,0,0,2.829-2.788,2.835,2.835,0,0,0-2.829-2.829H198.6a3.132,3.132,0,0,0-3.157,3.157V-3.157A3.132,3.132,0,0,0,198.6,0Zm34.522.41c6.191,0,10.537-3.2,10.537-8.9v-.082c0-5-3.28-7.093-9.1-8.61-4.961-1.271-6.191-1.886-6.191-3.772v-.082c0-1.394,1.271-2.5,3.69-2.5a11.942,11.942,0,0,1,6.027,1.927,3.029,3.029,0,0,0,1.6.451,2.905,2.905,0,0,0,2.952-2.911,2.877,2.877,0,0,0-1.394-2.5,16.661,16.661,0,0,0-9.1-2.542c-5.863,0-10.045,3.444-10.045,8.651v.082c0,5.7,3.731,7.3,9.512,8.774,4.8,1.23,5.781,2.05,5.781,3.649v.082c0,1.681-1.558,2.706-4.141,2.706a12.1,12.1,0,0,1-7.339-2.583,3.036,3.036,0,0,0-1.8-.574,2.905,2.905,0,0,0-2.952,2.911,2.948,2.948,0,0,0,1.189,2.378A18.525,18.525,0,0,0,233.126.41Zm16.318-3.321A3.132,3.132,0,0,0,252.6.246a3.132,3.132,0,0,0,3.157-3.157V-25.789a3.132,3.132,0,0,0-3.157-3.157,3.132,3.132,0,0,0-3.157,3.157Zm27.429,3.4c8.856,0,15.293-6.683,15.293-14.842v-.082c0-8.159-6.355-14.76-15.211-14.76s-15.293,6.683-15.293,14.842v.082C261.662-6.109,268.017.492,276.873.492Zm.082-5.822a8.719,8.719,0,0,1-8.692-9.02v-.082c0-4.92,3.526-8.938,8.61-8.938a8.719,8.719,0,0,1,8.692,9.02v.082C285.565-9.348,282.039-5.33,276.955-5.33Zm20.828,2.46A3.115,3.115,0,0,0,300.9.246a3.115,3.115,0,0,0,3.116-3.116V-18.245L316.643-1.681a3.911,3.911,0,0,0,3.28,1.845h.205a3.132,3.132,0,0,0,3.157-3.157V-25.83a3.115,3.115,0,0,0-3.116-3.116,3.115,3.115,0,0,0-3.116,3.116v14.8l-12.177-15.99a3.911,3.911,0,0,0-3.28-1.845h-.656a3.132,3.132,0,0,0-3.157,3.157Zm30.422.164A2.905,2.905,0,0,0,331.116.246a3.1,3.1,0,0,0,2.911-1.968l2.009-4.715h12.628l1.927,4.51A3.215,3.215,0,0,0,353.625.246a2.993,2.993,0,0,0,2.993-3.034,3.078,3.078,0,0,0-.328-1.271l-10-22.591a3.848,3.848,0,0,0-3.649-2.5h-.369a3.9,3.9,0,0,0-3.69,2.5l-10,22.591A3.349,3.349,0,0,0,328.205-2.706Zm10.168-9.307,3.977-9.471,3.977,9.471ZM377.036,0h16.113a2.8,2.8,0,0,0,2.829-2.788,2.835,2.835,0,0,0-2.829-2.829h-13v-6.027H391.1a2.8,2.8,0,0,0,2.829-2.788,2.835,2.835,0,0,0-2.829-2.829H380.152v-5.822h12.792a2.8,2.8,0,0,0,2.829-2.788,2.835,2.835,0,0,0-2.829-2.829H377.036a3.132,3.132,0,0,0-3.157,3.157V-3.157A3.132,3.132,0,0,0,377.036,0Zm24.313-3.157A3.132,3.132,0,0,0,404.506,0h14.842a2.852,2.852,0,0,0,2.87-2.87,2.852,2.852,0,0,0-2.87-2.87H407.663V-25.789a3.132,3.132,0,0,0-3.157-3.157,3.132,3.132,0,0,0-3.157,3.157Zm37.679,0A3.132,3.132,0,0,0,442.185,0h10.5c6.478,0,10.742-2.624,10.742-7.872v-.082c0-3.854-2.05-5.781-5.371-7.052a6.675,6.675,0,0,0,3.772-6.191v-.082a6.582,6.582,0,0,0-1.968-4.879c-1.64-1.64-4.223-2.542-7.5-2.542H442.185a3.132,3.132,0,0,0-3.157,3.157Zm6.15-13.94v-6.068h6.232c2.665,0,4.141,1.066,4.141,2.952v.082c0,2.132-1.763,3.034-4.551,3.034Zm0,11.562v-6.314h7.3c3.239,0,4.674,1.189,4.674,3.116v.082c0,2.132-1.681,3.116-4.469,3.116ZM482.57.492c8.856,0,15.293-6.683,15.293-14.842v-.082c0-8.159-6.355-14.76-15.211-14.76s-15.293,6.683-15.293,14.842v.082C467.359-6.109,473.714.492,482.57.492Zm.082-5.822a8.719,8.719,0,0,1-8.692-9.02v-.082c0-4.92,3.526-8.938,8.61-8.938a8.719,8.719,0,0,1,8.692,9.02v.082C491.262-9.348,487.736-5.33,482.652-5.33Zm26.281,2.419A3.132,3.132,0,0,0,512.09.246a3.132,3.132,0,0,0,3.157-3.157V-22.878h6.068a2.922,2.922,0,0,0,2.911-2.911,2.922,2.922,0,0,0-2.911-2.911h-18.45a2.922,2.922,0,0,0-2.911,2.911,2.922,2.922,0,0,0,2.911,2.911h6.068Zm32.595,3.4c8.856,0,15.293-6.683,15.293-14.842v-.082c0-8.159-6.355-14.76-15.211-14.76s-15.293,6.683-15.293,14.842v.082C526.317-6.109,532.672.492,541.528.492Zm.082-5.822a8.719,8.719,0,0,1-8.692-9.02v-.082c0-4.92,3.526-8.938,8.61-8.938a8.719,8.719,0,0,1,8.692,9.02v.082C550.22-9.348,546.694-5.33,541.61-5.33ZM541.4-31.119a4.581,4.581,0,0,0,3.567-1.353l2.542-2.378a2.026,2.026,0,0,0,.82-1.476c0-.943-1.968-1.886-3.485-1.886a2.675,2.675,0,0,0-2.337,1.394l-2.255,3.526a2.288,2.288,0,0,0-.41,1.107C539.847-31.529,540.5-31.119,541.4-31.119ZM562.438-2.87A3.115,3.115,0,0,0,565.554.246,3.115,3.115,0,0,0,568.67-2.87V-18.245L581.3-1.681a3.911,3.911,0,0,0,3.28,1.845h.205a3.132,3.132,0,0,0,3.157-3.157V-25.83a3.115,3.115,0,0,0-3.116-3.116,3.115,3.115,0,0,0-3.116,3.116v14.8l-12.177-15.99a3.911,3.911,0,0,0-3.28-1.845H565.6a3.132,3.132,0,0,0-3.157,3.157Z" transform="translate(175 452)"/></g></svg>